<svg id="Слой_1" data-name="Слой 1" xmlns="http://www.w3.org/2000/svg" viewBox="0 0 640 640"><path d="M480,64A159.95592,159.95592,0,0,1,640,224V448a64.05929,64.05929,0,0,1-64,64h-5.6a95.845,95.845,0,0,1-180.8,0H250.5a95.845,95.845,0,0,1-180.8,0H64A64.05928,64.05928,0,0,1,0,448V160A96.02477,96.02477,0,0,1,96,64ZM160,432a48,48,0,1,0,48,48A48.01238,48.01238,0,0,0,160,432Zm320,0a48,48,0,1,0,48,48A48.01238,48.01238,0,0,0,480,432Zm0-304a31.96563,31.96563,0,0,0-32,32V352a31.96562,31.96562,0,0,0,32,32h64a31.96562,31.96562,0,0,0,32-32V224A96.02477,96.02477,0,0,0,480,128ZM248,288H352a31.96562,31.96562,0,0,0,32-32V160a31.96563,31.96563,0,0,0-32-32H248ZM96,128a31.96564,31.96564,0,0,0-32,32v96a31.96563,31.96563,0,0,0,32,32H200V128Z" style="fill:#b79a56"/></svg>