<svg id="Слой_1" data-name="Слой 1" xmlns="http://www.w3.org/2000/svg" viewBox="0 0 1471.9032 1615.2812"><rect x="43.4775" y="508.5002" width="1384.9482" height="86.9551" style="fill:#fff"/><path d="M384.5256,380.4282a65.21669,65.21669,0,0,1-65.2164-65.2161V65.2163a65.2164,65.2164,0,0,1,130.4328,0V315.2121A65.21669,65.21669,0,0,1,384.5256,380.4282Z" style="fill:#fff"/><rect x="486.6979" y="150.1821" width="498.5076" height="86.955" style="fill:#fff"/><path d="M1322.5022,150.1821H1189.5499v86.955h132.9523a62.51725,62.51725,0,0,1,62.4459,62.4459V1465.8804a62.51725,62.51725,0,0,1-62.4459,62.4459H149.401a62.51725,62.51725,0,0,1-62.4459-62.4459V299.583a62.51725,62.51725,0,0,1,62.4459-62.4459H282.3535v-86.955H149.401C67.0208,150.1821,0,217.2029,0,299.583V1465.8804c0,82.38,67.0208,149.4008,149.401,149.4008H1322.5022c82.3802,0,149.401-67.0208,149.401-149.4008V299.583C1471.9032,217.2029,1404.8824,150.1821,1322.5022,150.1821Z" style="fill:#fff"/><path d="M1087.3776,380.4282a65.21669,65.21669,0,0,1-65.2164-65.2161V65.2163a65.21635,65.21635,0,0,1,130.4327,0V315.2121A65.2166,65.2166,0,0,1,1087.3776,380.4282Z" style="fill:#fff"/><path d="M255.5093,1232.5387H370.8509a10.2519,10.2519,0,0,1,10.2519,10.2519v115.3419a10.2519,10.2519,0,0,1-10.2519,10.2519H255.5092a10.2518,10.2518,0,0,1-10.2518-10.2518v-115.342A10.2519,10.2519,0,0,1,255.5093,1232.5387Z" style="fill:#fff"/><path d="M537.357,1232.5387H652.6988a10.2518,10.2518,0,0,1,10.2518,10.2518v115.342a10.2519,10.2519,0,0,1-10.2519,10.2519H537.357a10.2519,10.2519,0,0,1-10.2519-10.2519V1242.7906A10.2519,10.2519,0,0,1,537.357,1232.5387Z" style="fill:#fff"/><path d="M819.2045,1232.5387H934.5462a10.2519,10.2519,0,0,1,10.2519,10.2519v115.3419a10.2519,10.2519,0,0,1-10.2519,10.2519H819.2044a10.2518,10.2518,0,0,1-10.2518-10.2518v-115.342A10.2519,10.2519,0,0,1,819.2045,1232.5387Z" style="fill:#fff"/><rect x="1090.8003" y="1232.5387" width="135.8455" height="135.8457" rx="10.2519" style="fill:#fff"/><path d="M255.5092,991.3179H370.8509a10.2519,10.2519,0,0,1,10.2519,10.2519v115.3416a10.2519,10.2519,0,0,1-10.2519,10.2519H255.5092a10.2518,10.2518,0,0,1-10.2518-10.2518V1001.5697A10.2518,10.2518,0,0,1,255.5092,991.3179Z" style="fill:#fff"/><path d="M537.357,991.3179H652.6988a10.2518,10.2518,0,0,1,10.2518,10.2518v115.3418a10.2518,10.2518,0,0,1-10.2518,10.2518H537.357a10.2519,10.2519,0,0,1-10.2519-10.2519V1001.5698A10.2519,10.2519,0,0,1,537.357,991.3179Z" style="fill:#fff"/><path d="M819.2044,991.3179H934.5462a10.2519,10.2519,0,0,1,10.2519,10.2519v115.3416a10.2519,10.2519,0,0,1-10.2519,10.2519H819.2044a10.2518,10.2518,0,0,1-10.2518-10.2518V1001.5697A10.2518,10.2518,0,0,1,819.2044,991.3179Z" style="fill:#fff"/><path d="M1101.0521,991.3179h115.3418a10.2519,10.2519,0,0,1,10.2519,10.2519v115.3416a10.2519,10.2519,0,0,1-10.2519,10.2519H1101.0522a10.2519,10.2519,0,0,1-10.2519-10.2519V1001.5697A10.2518,10.2518,0,0,1,1101.0521,991.3179Z" style="fill:#fff"/><path d="M537.357,750.097H652.6988a10.2518,10.2518,0,0,1,10.2518,10.2518V875.6907a10.2518,10.2518,0,0,1-10.2518,10.2518H537.3569a10.2518,10.2518,0,0,1-10.2518-10.2518V760.3489A10.2519,10.2519,0,0,1,537.357,750.097Z" style="fill:#fff"/><path d="M819.2045,750.097H934.5462a10.2519,10.2519,0,0,1,10.2519,10.2519V875.6907a10.2518,10.2518,0,0,1-10.2518,10.2518H819.2044a10.2518,10.2518,0,0,1-10.2518-10.2518V760.3489A10.2519,10.2519,0,0,1,819.2045,750.097Z" style="fill:#fff"/><path d="M1101.0522,750.097h115.3417a10.2519,10.2519,0,0,1,10.2519,10.2519V875.6907a10.2518,10.2518,0,0,1-10.2518,10.2518H1101.0522a10.2519,10.2519,0,0,1-10.2519-10.2519V760.3489A10.2519,10.2519,0,0,1,1101.0522,750.097Z" style="fill:#fff"/></svg>