<svg id="Слой_1" data-name="Слой 1" xmlns="http://www.w3.org/2000/svg" viewBox="0 0 640 640"><path d="M147,170.7,117.2,256H240.1V160H162.2a15.9632,15.9632,0,0,0-15.1,10.7ZM48.6,257.9,86.5,149.6A80.18727,80.18727,0,0,1,162.1,96H360a80.087,80.087,0,0,1,64,32l96.2,128.3A127.955,127.955,0,0,1,640,384v16a64.05929,64.05929,0,0,1-64,64H559.6a87.961,87.961,0,0,1-175.2,0H239.7a87.961,87.961,0,0,1-175.2,0h-.4a64.05928,64.05928,0,0,1-64-64V320a63.85907,63.85907,0,0,1,48.6-62.1ZM440,256l-67.2-89.6A16.1034,16.1034,0,0,0,360,160H288v96ZM152,496a39.989,39.989,0,1,0-.022,0Zm360-40a39.989,39.989,0,1,0,0,.022Z" style="fill:#b79a56"/></svg>