<svg id="Слой_1" data-name="Слой 1" xmlns="http://www.w3.org/2000/svg" viewBox="0 0 172.83185 252.89999">
  <defs>
    <style>
      .cls-1 {
        fill: #fff;
      }
    </style>
  </defs>
  <g>
    <path class="cls-1" d="M86.41593,252.9a5.61975,5.61975,0,0,1-4.83882-2.76223L68.65673,228.28439C43.34425,185.49091,17.1691,141.24184,8.711,124.25819A85.54629,85.54629,0,0,1,0,86.41873a86.41593,86.41593,0,1,1,172.83185-.0028,85.57694,85.57694,0,0,1-8.68289,37.79449c-.045.09274-.08991.18265-.14051.27258-8.57331,17.13257-34.59391,61.12029-59.75745,103.66933L91.25475,250.135A5.61634,5.61634,0,0,1,86.41593,252.9Zm0-241.66A75.25982,75.25982,0,0,0,11.24,86.41593a74.42125,74.42125,0,0,0,7.55047,32.87419c8.25859,16.57056,34.31853,60.62294,59.5186,103.22534l8.10686,13.72123,8.16024-13.80553c25.17759-42.56589,51.21224-86.58172,59.48488-103.186.02811-.059.059-.11521.08711-.17141A74.44311,74.44311,0,0,0,161.589,86.41592,75.2556,75.2556,0,0,0,86.41593,11.24Z"/>
    <path class="cls-1" d="M86.41593,122.28276a39.125,39.125,0,1,1,39.12363-39.12643A39.16853,39.16853,0,0,1,86.41593,122.28276Zm0-67.01006a27.88363,27.88363,0,1,0,27.88363,27.88362A27.91362,27.91362,0,0,0,86.41593,55.2727Z"/>
  </g>
</svg>
