<svg id="Слой_1" data-name="Слой 1" xmlns="http://www.w3.org/2000/svg" viewBox="0 0 252.89997 188.29809">
  <defs>
    <style>
      .cls-1 {
        fill: #fff;
      }
    </style>
  </defs>
  <g>
    <path class="cls-1" d="M229.70064,188.29809H23.19655A23.22277,23.22277,0,0,1,0,165.09874V23.19655A23.22218,23.22218,0,0,1,23.19655,0H229.70062A23.22276,23.22276,0,0,1,252.9,23.19655V165.09874A23.22333,23.22333,0,0,1,229.70064,188.29809ZM23.19655,11.24A11.97087,11.97087,0,0,0,11.24,23.19655V165.09874a11.97146,11.97146,0,0,0,11.95655,11.95935H229.70062A11.972,11.972,0,0,0,241.66,165.09874V23.19655A11.97146,11.97146,0,0,0,229.70062,11.24Z"/>
    <path class="cls-1" d="M126.45,121.13629A52.54543,52.54543,0,0,1,87.70291,104.0262L6.38713,14.80308l8.30636-7.57014L96.00927,96.45325a41.18368,41.18368,0,0,0,60.87865,0l81.31579-89.2175,8.30917,7.57014L165.19709,104.0262A52.54543,52.54543,0,0,1,126.45,121.13629Z"/>
    <rect class="cls-1" x="-5.76101" y="132.14583" width="112.12629" height="11.24073" transform="translate(-82.85229 76.2867) rotate(-45.158)"/>
    <rect class="cls-1" x="196.99343" y="81.70178" width="11.24072" height="112.12624" transform="translate(-38.18943 182.99017) rotate(-44.85011)"/>
  </g>
</svg>
