<svg id="Слой_1" data-name="Слой 1" xmlns="http://www.w3.org/2000/svg" viewBox="0 0 640 640"><path d="M320,144a56,56,0,1,0-56-56A56.03583,56.03583,0,0,0,320,144ZM233.4,291.9,256,269.3v69.3a95.90539,95.90539,0,0,0,33.5,72.9l71.4,61.2a32.2175,32.2175,0,0,1,10.9,19.8l12.6,88.1a32.01781,32.01781,0,1,0,63.4-9l-12.6-88.1a96.0141,96.0141,0,0,0-32.6-59.3l-34.5-29.6V279.4l3.8,4.7a95.8792,95.8792,0,0,0,75,36h33.2a32,32,0,0,0,0-64H446.9a32.05854,32.05854,0,0,1-25-12L404,221.7a121.27347,121.27347,0,0,0-180.6-10l-35.3,34.9A95.96451,95.96451,0,0,0,160,314.5V352a32,32,0,0,0,64,0V314.5A31.94287,31.94287,0,0,1,233.4,291.9Zm12.4,179.4a32.20706,32.20706,0,0,1-8.1,13.8l-68.3,68.3a32.03194,32.03194,0,0,0,45.3,45.3L283,530.4a96.16913,96.16913,0,0,0,24.4-41.5l2.2-7.6-46-39.4c-2.5-2.2-5-4.4-7.4-6.8Z" style="fill:#b79a56"/></svg>