<svg id="Слой_1" data-name="Слой 1" xmlns="http://www.w3.org/2000/svg" viewBox="0 0 151.52081 252.89999">
  <defs>
    <style>
      .cls-1 {
        fill: #fff;
      }
    </style>
  </defs>
  <g>
    <path class="cls-1" d="M122.91221,252.9H28.60861A28.64037,28.64037,0,0,1,0,224.29139V28.60861A28.64037,28.64037,0,0,1,28.60861,0h94.3036a28.64217,28.64217,0,0,1,28.6086,28.60861V224.29419A28.63977,28.63977,0,0,1,122.91221,252.9ZM28.60861,11.24A17.38725,17.38725,0,0,0,11.24,28.60861V224.29419A17.38725,17.38725,0,0,0,28.60861,241.6628h94.3036a17.38726,17.38726,0,0,0,17.3686-17.36861V28.60861A17.38724,17.38724,0,0,0,122.91221,11.24Z"/>
    <circle class="cls-1" cx="75.77165" cy="222.78803" r="9.11564"/>
    <path class="cls-1" d="M92.98008,33.51206H58.54073a5.62,5.62,0,0,1,0-11.24H92.9801a5.62,5.62,0,1,1,0,11.24Z"/>
  </g>
</svg>
