<svg id="Слой_1" data-name="Слой 1" xmlns="http://www.w3.org/2000/svg" viewBox="0 0 448.24477 448.15"><path d="M224.16974,109.175a115.00039,115.00039,0,1,0,114.7,115.3A115.0166,115.0166,0,0,0,224.16974,109.175Zm-.6,40.4a74.60061,74.60061,0,1,1-74.3,74.9A74.601,74.601,0,0,1,223.56976,149.575Zm93.4-45.1a26.8,26.8,0,1,1,26.8,26.8A26.80157,26.80157,0,0,1,316.96976,104.475Zm129.7,27.2c-1.7-35.9-9.9-67.7-36.2-93.9-26.2-26.2-58-34.4-93.9-36.2-37-2.1-147.9-2.1-184.9,0-35.8,1.7-67.6,9.9-93.9,36.1s-34.4,58-36.2,93.9c-2.1,37-2.1,147.9,0,184.9,1.7,35.9,9.9,67.7,36.2,93.9s58,34.4,93.9,36.2c37,2.1,147.9,2.1,184.9,0,35.9-1.7,67.7-9.9,93.9-36.2,26.2-26.2,34.4-58,36.2-93.9C448.76978,279.475,448.76978,168.675,446.66974,131.675Zm-47.8,224.5a75.62747,75.62747,0,0,1-42.6,42.6c-29.5,11.7-99.5,9-132.1,9s-102.7,2.6-132.1-9a75.62754,75.62754,0,0,1-42.6-42.6c-11.7-29.5-9-99.5-9-132.1s-2.6-102.7,9-132.1a75.62753,75.62753,0,0,1,42.6-42.6c29.5-11.7,99.5-9,132.1-9s102.7-2.6,132.1,9a75.62758,75.62758,0,0,1,42.6,42.6c11.7,29.5,9,99.5,9,132.1S410.56976,326.775,398.86975,356.175Z" style="fill:#fff"/></svg>