<svg id="Слой_1" data-name="Слой 1" xmlns="http://www.w3.org/2000/svg" viewBox="0 0 60 60"><path d="M5.7754,31.89881a80.72652,80.72652,0,0,1,14.05028,5.06131q-2.29314,1.17783-4.56248,2.51233c-.47094.27824-.94408.55993-1.41815.84945a80.69033,80.69033,0,0,0-11.93684-7.39c-.06642-.64892-.11154-1.30661-.13316-1.96931q2.00927.42254,4.00035.93624" style="fill:#fff"/><path d="M1.94989,33.29692a79.83078,79.83078,0,0,1,11.218,7.443C10.90909,42.14677,8.63333,43.69026,6.377,45.345l-.04481.0329a27.96535,27.96535,0,0,1-4.38231-12.081" style="fill:#fff"/><path d="M43.88265,41.98885a80.66786,80.66786,0,0,1,14.09289-9.05634q.10105-.97432.13317-1.969-2.01068.42113-4.00036.93593A79.46213,79.46213,0,0,0,24.12276,46.91072a84.5588,84.5588,0,0,0-8.152,7.47274,27.96417,27.96417,0,0,0,13.03852,3.72431,62.13316,62.13316,0,0,1,5.37214-7.067,75.16054,75.16054,0,0,1,9.50128-9.05195" style="fill:#fff"/><path d="M44.41594,42.63212a74.15057,74.15057,0,0,0-9.07921,9.2199A61.5817,61.5817,0,0,0,30.80527,58.115,28.13017,28.13017,0,0,0,57.93355,33.296a80.1056,80.1056,0,0,0-13.51761,9.33614" style="fill:#fff"/><path d="M30,.836A29.164,29.164,0,1,0,59.164,30,29.19676,29.19676,0,0,0,30,.836ZM30,60A30,30,0,1,1,60,30,30.03455,30.03455,0,0,1,30,60" style="fill:#fff"/><path d="M22.14875,23.07121a2.06473,2.06473,0,1,0,2.06457,2.06457,2.06424,2.06424,0,0,0-2.06457-2.06457" style="fill:#fff"/><path d="M22.14875,33.23112a8.08374,8.08374,0,0,1-6.36917-3.10767c-.5076-.07708-1.01552-.15071-1.52469-.21651A73.02465,73.02465,0,0,0,1.76377,29.383c-.00314.203-.00878.40922-.00878.61539,0,.215.00564.429.00878.64077q2.06377.377,4.1119.8551A81.10911,81.10911,0,0,1,20.73122,36.503c2.50669-1.25617,5.03656-2.37039,7.56267-3.33452-.835-.28232-1.67666-.54458-2.5211-.79744a8.04409,8.04409,0,0,1-3.624.86011" style="fill:#fff"/><path d="M22.14875,29.72019a4.58473,4.58473,0,1,1,4.5841-4.58441A4.5842,4.5842,0,0,1,22.14875,29.72019Zm0-11.8444a7.25968,7.25968,0,1,0,7.25936,7.26,7.259,7.259,0,0,0-7.25936-7.26" style="fill:#fff"/><path d="M58.11905,29.38148a73.21444,73.21444,0,0,0-12.48862.5264c-.34561.04387-.689.09839-1.034.14821a5.47744,5.47744,0,0,1-8.62362,1.77849q-2.93235.79383-5.79075,1.81985a84.97851,84.97851,0,0,0-14.35422,6.77745,103.83754,103.83754,0,0,0-8.79219,5.81238,28.28073,28.28073,0,0,0,7.59776,7.31607A86.12832,86.12832,0,0,1,23.351,45.9234,80.29408,80.29408,0,0,1,54.00808,31.49367q2.04546-.47894,4.111-.85447c.0047-.21244.00783-.42582.00783-.6392,0-.2068-.00313-.41235-.00783-.61852" style="fill:#fff"/><path d="M39.62,30.486a2.75281,2.75281,0,1,1,2.753-2.753A2.75252,2.75252,0,0,1,39.62,30.486Zm0-7.41477A4.662,4.662,0,1,0,44.28277,27.733,4.66183,4.66183,0,0,0,39.62,23.07121" style="fill:#fff"/><path d="M19.52895,14.25708V7.99664h7.28161l1.7318,6.26044Zm25.66344,1.99814H38.39927V9.15065a.75494.75494,0,0,1,.75483-.75451H39.62V7.24181h-.93217a2.9969,2.9969,0,0,0-2.99675,2.99737v6.016H32.13852L28.63072,5.688H16.82017v9.965a10.9699,10.9699,0,0,0-1.60585,1.10294,1.14616,1.14616,0,1,0,1.48615,1.74528,8.58477,8.58477,0,0,1,14.0343,6.63457c0,.089-.00407.17735-.0072.26633h2.29236L33.024,25.398a10.96269,10.96269,0,0,0-.19489-2.32683h9.7886c1.4357-1.55383,2.2579-3.87126,2.57468-6.816" style="fill:#fff"/></svg>