<?xml version="1.0" encoding="UTF-8"?>
<svg xmlns="http://www.w3.org/2000/svg" xmlns:xlink="http://www.w3.org/1999/xlink" width="4800" height="3300" viewBox="0 0 4800 3300">
<defs>
<radialGradient id="radial-pattern-0" gradientUnits="userSpaceOnUse" cx="0" cy="0" fx="0" fy="0" r="2695.14" gradientTransform="matrix(1, 0, 0, 1, 1600, 1189)">
<stop offset="0" stop-color="rgb(100%, 100%, 100%)" stop-opacity="1"/>
<stop offset="0.25" stop-color="rgb(99.905396%, 99.969482%, 99.993896%)" stop-opacity="1"/>
<stop offset="0.261719" stop-color="rgb(99.708557%, 99.905396%, 99.981689%)" stop-opacity="1"/>
<stop offset="0.28125" stop-color="rgb(99.409485%, 99.620056%, 99.69635%)" stop-opacity="1"/>
<stop offset="0.300781" stop-color="rgb(99.111938%, 99.324036%, 99.394226%)" stop-opacity="1"/>
<stop offset="0.308594" stop-color="rgb(98.895264%, 99.108887%, 99.177551%)" stop-opacity="1"/>
<stop offset="0.328125" stop-color="rgb(98.596191%, 98.815918%, 98.878479%)" stop-opacity="1"/>
<stop offset="0.347656" stop-color="rgb(98.390198%, 98.605347%, 98.66333%)" stop-opacity="1"/>
<stop offset="0.355469" stop-color="rgb(98.234558%, 98.355103%, 98.373413%)" stop-opacity="1"/>
<stop offset="0.375" stop-color="rgb(98.007202%, 98.139954%, 98.158264%)" stop-opacity="1"/>
<stop offset="0.382812" stop-color="rgb(97.703552%, 97.825623%, 97.834778%)" stop-opacity="1"/>
<stop offset="0.398438" stop-color="rgb(97.293091%, 97.323608%, 97.288513%)" stop-opacity="1"/>
<stop offset="0.414062" stop-color="rgb(96.896362%, 97.006226%, 96.998596%)" stop-opacity="1"/>
<stop offset="0.429688" stop-color="rgb(96.600342%, 96.803284%, 96.827698%)" stop-opacity="1"/>
<stop offset="0.4375" stop-color="rgb(96.395874%, 96.534729%, 96.530151%)" stop-opacity="1"/>
<stop offset="0.445312" stop-color="rgb(96.183777%, 96.166992%, 96.098328%)" stop-opacity="1"/>
<stop offset="0.453125" stop-color="rgb(95.960999%, 95.71991%, 95.558167%)" stop-opacity="1"/>
<stop offset="0.460938" stop-color="rgb(95.648193%, 95.341492%, 95.149231%)" stop-opacity="1"/>
<stop offset="0.46875" stop-color="rgb(95.350647%, 95.106506%, 94.935608%)" stop-opacity="1"/>
<stop offset="0.472656" stop-color="rgb(95.150757%, 94.947815%, 94.790649%)" stop-opacity="1"/>
<stop offset="0.476562" stop-color="rgb(94.900513%, 94.775391%, 94.645691%)" stop-opacity="1"/>
<stop offset="0.480469" stop-color="rgb(94.607544%, 94.590759%, 94.499207%)" stop-opacity="1"/>
<stop offset="0.484375" stop-color="rgb(94.314575%, 94.406128%, 94.352722%)" stop-opacity="1"/>
<stop offset="0.488281" stop-color="rgb(94.023132%, 94.219971%, 94.203186%)" stop-opacity="1"/>
<stop offset="0.492188" stop-color="rgb(93.676758%, 93.875122%, 93.85376%)" stop-opacity="1"/>
<stop offset="0.5" stop-color="rgb(93.2724%, 93.371582%, 93.305969%)" stop-opacity="1"/>
<stop offset="0.507812" stop-color="rgb(92.96875%, 92.99469%, 92.89856%)" stop-opacity="1"/>
<stop offset="0.511719" stop-color="rgb(92.76886%, 92.745972%, 92.628479%)" stop-opacity="1"/>
<stop offset="0.515625" stop-color="rgb(92.565918%, 92.495728%, 92.356873%)" stop-opacity="1"/>
<stop offset="0.519531" stop-color="rgb(92.366028%, 92.248535%, 92.088318%)" stop-opacity="1"/>
<stop offset="0.523438" stop-color="rgb(92.166138%, 92.041016%, 91.836548%)" stop-opacity="1"/>
<stop offset="0.527344" stop-color="rgb(91.972351%, 91.880798%, 91.607666%)" stop-opacity="1"/>
<stop offset="0.53125" stop-color="rgb(91.775513%, 91.725159%, 91.38031%)" stop-opacity="1"/>
<stop offset="0.535156" stop-color="rgb(91.581726%, 91.567993%, 91.151428%)" stop-opacity="1"/>
<stop offset="0.539062" stop-color="rgb(91.383362%, 91.374207%, 90.908813%)" stop-opacity="1"/>
<stop offset="0.542969" stop-color="rgb(91.183472%, 91.136169%, 90.646362%)" stop-opacity="1"/>
<stop offset="0.546875" stop-color="rgb(90.985107%, 90.892029%, 90.382385%)" stop-opacity="1"/>
<stop offset="0.550781" stop-color="rgb(90.785217%, 90.644836%, 90.116882%)" stop-opacity="1"/>
<stop offset="0.554688" stop-color="rgb(90.548706%, 90.390015%, 89.852905%)" stop-opacity="1"/>
<stop offset="0.558594" stop-color="rgb(90.264893%, 90.119934%, 89.587402%)" stop-opacity="1"/>
<stop offset="0.5625" stop-color="rgb(89.970398%, 89.849854%, 89.323425%)" stop-opacity="1"/>
<stop offset="0.566406" stop-color="rgb(89.677429%, 89.579773%, 89.057922%)" stop-opacity="1"/>
<stop offset="0.570312" stop-color="rgb(89.41803%, 89.318848%, 88.764954%)" stop-opacity="1"/>
<stop offset="0.574219" stop-color="rgb(89.205933%, 89.068604%, 88.427734%)" stop-opacity="1"/>
<stop offset="0.578125" stop-color="rgb(89.009094%, 88.824463%, 88.08136%)" stop-opacity="1"/>
<stop offset="0.582031" stop-color="rgb(88.809204%, 88.578796%, 87.736511%)" stop-opacity="1"/>
<stop offset="0.585938" stop-color="rgb(88.580322%, 88.298035%, 87.406921%)" stop-opacity="1"/>
<stop offset="0.589844" stop-color="rgb(88.301086%, 87.962341%, 87.103271%)" stop-opacity="1"/>
<stop offset="0.59375" stop-color="rgb(88.005066%, 87.606812%, 86.808777%)" stop-opacity="1"/>
<stop offset="0.597656" stop-color="rgb(87.710571%, 87.252808%, 86.514282%)" stop-opacity="1"/>
<stop offset="0.601562" stop-color="rgb(87.416077%, 86.92627%, 86.233521%)" stop-opacity="1"/>
<stop offset="0.605469" stop-color="rgb(87.124634%, 86.643982%, 85.971069%)" stop-opacity="1"/>
<stop offset="0.609375" stop-color="rgb(86.833191%, 86.383057%, 85.719299%)" stop-opacity="1"/>
<stop offset="0.613281" stop-color="rgb(86.5448%, 86.120605%, 85.466003%)" stop-opacity="1"/>
<stop offset="0.617188" stop-color="rgb(86.230469%, 85.829163%, 85.18219%)" stop-opacity="1"/>
<stop offset="0.621094" stop-color="rgb(85.86731%, 85.47821%, 84.835815%)" stop-opacity="1"/>
<stop offset="0.625" stop-color="rgb(85.479736%, 85.10437%, 84.463501%)" stop-opacity="1"/>
<stop offset="0.628906" stop-color="rgb(85.095215%, 84.729004%, 84.092712%)" stop-opacity="1"/>
<stop offset="0.632812" stop-color="rgb(84.709167%, 84.355164%, 83.721924%)" stop-opacity="1"/>
<stop offset="0.636719" stop-color="rgb(84.324646%, 83.982849%, 83.354187%)" stop-opacity="1"/>
<stop offset="0.640625" stop-color="rgb(83.94165%, 83.613586%, 82.989502%)" stop-opacity="1"/>
<stop offset="0.644531" stop-color="rgb(83.558655%, 83.242798%, 82.624817%)" stop-opacity="1"/>
<stop offset="0.648438" stop-color="rgb(83.175659%, 82.875061%, 82.261658%)" stop-opacity="1"/>
<stop offset="0.652344" stop-color="rgb(82.792664%, 82.50885%, 81.900024%)" stop-opacity="1"/>
<stop offset="0.65625" stop-color="rgb(82.411194%, 82.144165%, 81.542969%)" stop-opacity="1"/>
<stop offset="0.660156" stop-color="rgb(82.03125%, 81.781006%, 81.184387%)" stop-opacity="1"/>
<stop offset="0.664062" stop-color="rgb(81.64978%, 81.404114%, 80.795288%)" stop-opacity="1"/>
<stop offset="0.667969" stop-color="rgb(81.268311%, 80.981445%, 80.308533%)" stop-opacity="1"/>
<stop offset="0.671875" stop-color="rgb(80.888367%, 80.532837%, 79.759216%)" stop-opacity="1"/>
<stop offset="0.675781" stop-color="rgb(80.506897%, 80.084229%, 79.211426%)" stop-opacity="1"/>
<stop offset="0.679688" stop-color="rgb(80.114746%, 79.63562%, 78.689575%)" stop-opacity="1"/>
<stop offset="0.683594" stop-color="rgb(79.676819%, 79.180908%, 78.253174%)" stop-opacity="1"/>
<stop offset="0.6875" stop-color="rgb(79.206848%, 78.721619%, 77.877808%)" stop-opacity="1"/>
<stop offset="0.691406" stop-color="rgb(78.736877%, 78.263855%, 77.505493%)" stop-opacity="1"/>
<stop offset="0.695312" stop-color="rgb(78.268433%, 77.807617%, 77.127075%)" stop-opacity="1"/>
<stop offset="0.699219" stop-color="rgb(77.801514%, 77.352905%, 76.71051%)" stop-opacity="1"/>
<stop offset="0.703125" stop-color="rgb(77.334595%, 76.899719%, 76.264954%)" stop-opacity="1"/>
<stop offset="0.707031" stop-color="rgb(76.869202%, 76.448059%, 75.822449%)" stop-opacity="1"/>
<stop offset="0.710938" stop-color="rgb(76.403809%, 75.999451%, 75.38147%)" stop-opacity="1"/>
<stop offset="0.714844" stop-color="rgb(75.941467%, 75.552368%, 74.945068%)" stop-opacity="1"/>
<stop offset="0.71875" stop-color="rgb(75.479126%, 75.108337%, 74.510193%)" stop-opacity="1"/>
<stop offset="0.722656" stop-color="rgb(75.018311%, 74.667358%, 74.079895%)" stop-opacity="1"/>
<stop offset="0.726562" stop-color="rgb(74.555969%, 74.226379%, 73.651123%)" stop-opacity="1"/>
<stop offset="0.730469" stop-color="rgb(74.098206%, 73.788452%, 73.225403%)" stop-opacity="1"/>
<stop offset="0.734375" stop-color="rgb(73.640442%, 73.353577%, 72.801208%)" stop-opacity="1"/>
<stop offset="0.738281" stop-color="rgb(73.182678%, 72.920227%, 72.381592%)" stop-opacity="1"/>
<stop offset="0.742188" stop-color="rgb(72.724915%, 72.488403%, 71.961975%)" stop-opacity="1"/>
<stop offset="0.746094" stop-color="rgb(72.224426%, 72.007751%, 71.495056%)" stop-opacity="1"/>
<stop offset="0.75" stop-color="rgb(71.679688%, 71.479797%, 70.980835%)" stop-opacity="1"/>
<stop offset="0.753906" stop-color="rgb(71.136475%, 70.956421%, 70.469666%)" stop-opacity="1"/>
<stop offset="0.757812" stop-color="rgb(70.594788%, 70.436096%, 69.963074%)" stop-opacity="1"/>
<stop offset="0.761719" stop-color="rgb(70.054626%, 69.917297%, 69.459534%)" stop-opacity="1"/>
<stop offset="0.765625" stop-color="rgb(69.515991%, 69.403076%, 68.960571%)" stop-opacity="1"/>
<stop offset="0.769531" stop-color="rgb(68.980408%, 68.893433%, 68.466187%)" stop-opacity="1"/>
<stop offset="0.773438" stop-color="rgb(68.443298%, 68.385315%, 67.976379%)" stop-opacity="1"/>
<stop offset="0.777344" stop-color="rgb(67.910767%, 67.878723%, 67.456055%)" stop-opacity="1"/>
<stop offset="0.78125" stop-color="rgb(67.378235%, 67.376709%, 66.905212%)" stop-opacity="1"/>
<stop offset="0.785156" stop-color="rgb(66.848755%, 66.879272%, 66.355896%)" stop-opacity="1"/>
<stop offset="0.789062" stop-color="rgb(66.319275%, 66.383362%, 65.811157%)" stop-opacity="1"/>
<stop offset="0.792969" stop-color="rgb(65.72113%, 65.782166%, 65.209961%)" stop-opacity="1"/>
<stop offset="0.796875" stop-color="rgb(65.039062%, 65.054321%, 64.544678%)" stop-opacity="1"/>
<stop offset="0.800781" stop-color="rgb(64.344788%, 64.311218%, 63.873291%)" stop-opacity="1"/>
<stop offset="0.804688" stop-color="rgb(63.653564%, 63.574219%, 63.209534%)" stop-opacity="1"/>
<stop offset="0.808594" stop-color="rgb(63.009644%, 62.921143%, 62.612915%)" stop-opacity="1"/>
<stop offset="0.8125" stop-color="rgb(62.428284%, 62.374878%, 62.097168%)" stop-opacity="1"/>
<stop offset="0.816406" stop-color="rgb(61.860657%, 61.856079%, 61.604309%)" stop-opacity="1"/>
<stop offset="0.820312" stop-color="rgb(61.297607%, 61.340332%, 61.116028%)" stop-opacity="1"/>
<stop offset="0.824219" stop-color="rgb(60.734558%, 60.829163%, 60.60791%)" stop-opacity="1"/>
<stop offset="0.828125" stop-color="rgb(60.176086%, 60.321045%, 60.070801%)" stop-opacity="1"/>
<stop offset="0.832031" stop-color="rgb(59.619141%, 59.817505%, 59.527588%)" stop-opacity="1"/>
<stop offset="0.835938" stop-color="rgb(59.066772%, 59.317017%, 58.992004%)" stop-opacity="1"/>
<stop offset="0.839844" stop-color="rgb(58.483887%, 58.766174%, 58.439636%)" stop-opacity="1"/>
<stop offset="0.84375" stop-color="rgb(57.858276%, 58.132935%, 57.861328%)" stop-opacity="1"/>
<stop offset="0.847656" stop-color="rgb(57.217407%, 57.475281%, 57.279968%)" stop-opacity="1"/>
<stop offset="0.851562" stop-color="rgb(56.582642%, 56.82373%, 56.703186%)" stop-opacity="1"/>
<stop offset="0.855469" stop-color="rgb(55.914307%, 56.158447%, 56.10199%)" stop-opacity="1"/>
<stop offset="0.859375" stop-color="rgb(55.183411%, 55.471802%, 55.455017%)" stop-opacity="1"/>
<stop offset="0.863281" stop-color="rgb(54.431152%, 54.776001%, 54.79126%)" stop-opacity="1"/>
<stop offset="0.867188" stop-color="rgb(53.684998%, 54.090881%, 54.135132%)" stop-opacity="1"/>
<stop offset="0.871094" stop-color="rgb(52.932739%, 53.398132%, 53.489685%)" stop-opacity="1"/>
<stop offset="0.875" stop-color="rgb(52.16217%, 52.69165%, 52.857971%)" stop-opacity="1"/>
<stop offset="0.878906" stop-color="rgb(51.387024%, 51.979065%, 52.235413%)" stop-opacity="1"/>
<stop offset="0.882812" stop-color="rgb(50.619507%, 51.275635%, 51.618958%)" stop-opacity="1"/>
<stop offset="0.886719" stop-color="rgb(49.874878%, 50.579834%, 50.991821%)" stop-opacity="1"/>
<stop offset="0.890625" stop-color="rgb(49.169922%, 49.885559%, 50.326538%)" stop-opacity="1"/>
<stop offset="0.894531" stop-color="rgb(48.490906%, 49.197388%, 49.642944%)" stop-opacity="1"/>
<stop offset="0.898438" stop-color="rgb(47.817993%, 48.516846%, 48.96698%)" stop-opacity="1"/>
<stop offset="0.902344" stop-color="rgb(47.128296%, 47.808838%, 48.271179%)" stop-opacity="1"/>
<stop offset="0.90625" stop-color="rgb(46.392822%, 47.019958%, 47.517395%)" stop-opacity="1"/>
<stop offset="0.910156" stop-color="rgb(45.628357%, 46.188354%, 46.733093%)" stop-opacity="1"/>
<stop offset="0.914062" stop-color="rgb(44.874573%, 45.365906%, 45.954895%)" stop-opacity="1"/>
<stop offset="0.917969" stop-color="rgb(44.100952%, 44.548035%, 45.179749%)" stop-opacity="1"/>
<stop offset="0.921875" stop-color="rgb(43.254089%, 43.72406%, 44.380188%)" stop-opacity="1"/>
<stop offset="0.925781" stop-color="rgb(42.36145%, 42.897034%, 43.569946%)" stop-opacity="1"/>
<stop offset="0.929688" stop-color="rgb(41.479492%, 42.082214%, 42.76886%)" stop-opacity="1"/>
<stop offset="0.933594" stop-color="rgb(40.611267%, 41.273499%, 41.972351%)" stop-opacity="1"/>
<stop offset="0.9375" stop-color="rgb(39.770508%, 40.457153%, 41.160583%)" stop-opacity="1"/>
<stop offset="0.941406" stop-color="rgb(38.952637%, 39.640808%, 40.339661%)" stop-opacity="1"/>
<stop offset="0.945312" stop-color="rgb(38.145447%, 38.833618%, 39.529419%)" stop-opacity="1"/>
<stop offset="0.949219" stop-color="rgb(37.345886%, 38.02948%, 38.723755%)" stop-opacity="1"/>
<stop offset="0.953125" stop-color="rgb(36.550903%, 37.197876%, 37.905884%)" stop-opacity="1"/>
<stop offset="0.957031" stop-color="rgb(35.760498%, 36.347961%, 37.077332%)" stop-opacity="1"/>
<stop offset="0.960938" stop-color="rgb(34.980774%, 35.508728%, 36.25946%)" stop-opacity="1"/>
<stop offset="0.964844" stop-color="rgb(34.208679%, 34.67865%, 35.444641%)" stop-opacity="1"/>
<stop offset="0.96875" stop-color="rgb(33.425903%, 33.839417%, 34.597778%)" stop-opacity="1"/>
<stop offset="0.972656" stop-color="rgb(32.635498%, 32.99408%, 33.728027%)" stop-opacity="1"/>
<stop offset="0.976562" stop-color="rgb(31.854248%, 32.16095%, 32.865906%)" stop-opacity="1"/>
<stop offset="0.980469" stop-color="rgb(31.080627%, 31.336975%, 32.015991%)" stop-opacity="1"/>
<stop offset="0.984375" stop-color="rgb(30.279541%, 30.484009%, 31.15387%)" stop-opacity="1"/>
<stop offset="0.988281" stop-color="rgb(29.454041%, 29.60968%, 30.284119%)" stop-opacity="1"/>
<stop offset="0.992188" stop-color="rgb(28.637695%, 28.746033%, 29.423523%)" stop-opacity="1"/>
<stop offset="0.996094" stop-color="rgb(27.832031%, 27.894592%, 28.573608%)" stop-opacity="1"/>
<stop offset="1" stop-color="rgb(27.432251%, 27.471924%, 28.15094%)" stop-opacity="1"/>
</radialGradient>
</defs>

<path fill-rule="nonzero" fill="rgb(35.354614%, 37.086487%, 12.774658%)" fill-opacity="1" d="M 3200 0 L 4800 0 L 4800 1189 L 3200 1189 L 3200 0 "/>
<path fill-rule="nonzero" fill="rgb(100%, 100%, 100%)" fill-opacity="1" d="M 3200 1189 L 4800 1189 L 4800 2378 L 3200 2378 L 3200 1189 "/>
<path fill-rule="nonzero" fill="rgb(46.992493%, 78.140259%, 16.691589%)" fill-opacity="1" d="M 1600 3300 L 0 3300 L 0 2378 L 1600 2378 L 1600 3300 "/>
<path fill-rule="nonzero" fill="rgb(6.266785%, 5.734253%, 5.047607%)" fill-opacity="1" d="M 3200 3300 L 1600 3300 L 1600 2378 L 3200 2378 L 3200 3300 "/>
<path fill-rule="nonzero" fill="rgb(20.16449%, 19.297791%, 9.991455%)" fill-opacity="1" d="M 4800 3300 L 3200 3300 L 3200 2378 L 4800 2378 L 4800 3300 "/>
<path fill-rule="nonzero" fill="rgb(35.354614%, 37.086487%, 12.774658%)" fill-opacity="1" d="M 973.382812 1238.109375 C 1098.328125 1270.53125 1220.238281 1314.269531 1336.828125 1369.03125 C 1297.269531 1389.351562 1257.859375 1411.039062 1218.800781 1434.03125 C 1206.621094 1441.230469 1194.371094 1448.511719 1182.128906 1456 C 1084.921875 1383.371094 981.449219 1319.390625 873.367188 1264.839844 C 871.640625 1248.050781 870.488281 1231.050781 869.910156 1213.898438 C 904.570312 1221.171875 939.082031 1229.238281 973.382812 1238.109375 "/>
<path fill-rule="nonzero" fill="rgb(20.16449%, 19.297791%, 9.991455%)" fill-opacity="1" d="M 874.449219 1274.28125 C 976.480469 1330.191406 1073.609375 1394.679688 1164.621094 1466.808594 C 1106.179688 1503.199219 1047.308594 1543.121094 988.945312 1585.921875 L 987.792969 1586.78125 C 927.699219 1494.980469 887.851562 1388.699219 874.449219 1274.28125 "/>
<path fill-rule="nonzero" fill="rgb(35.354614%, 37.086487%, 12.774658%)" fill-opacity="1" d="M 1959.089844 1499.109375 C 2072.238281 1408.539062 2194.628906 1329.871094 2323.628906 1264.859375 C 2325.371094 1248.050781 2326.511719 1231.050781 2327.078125 1213.921875 C 2292.390625 1221.179688 2257.878906 1229.210938 2223.601562 1238.128906 C 2082.238281 1274.820312 1944.789062 1325.910156 1814.558594 1391.160156 C 1684.300781 1456.320312 1561.339844 1535.539062 1447.96875 1626.421875 C 1373.449219 1686.121094 1303.140625 1750.890625 1237.101562 1819.71875 C 1336.980469 1877.308594 1451.828125 1911.808594 1574.371094 1916.058594 C 1616.210938 1851.628906 1663 1790.75 1713.320312 1733.261719 C 1788.199219 1647.898438 1870.871094 1569.851562 1959.089844 1499.109375 "/>
<path fill-rule="nonzero" fill="rgb(20.16449%, 19.297791%, 9.991455%)" fill-opacity="1" d="M 1972.890625 1515.75 C 1887.871094 1588.511719 1808.828125 1668.121094 1738.039062 1754.238281 C 1695.671875 1805.878906 1656.25 1859.941406 1620.839844 1916.238281 C 1984.359375 1906.011719 2281.128906 1629.128906 2322.558594 1274.25 C 2197.921875 1342.578125 2080.589844 1423.738281 1972.890625 1515.75 "/>
<path fill-rule="nonzero" fill="rgb(58.151245%, 60.502625%, 13.66272%)" fill-opacity="1" d="M 1600 434.621094 C 1184.03125 434.621094 845.617188 773.03125 845.617188 1189 C 845.617188 1604.96875 1184.03125 1943.378906 1600 1943.378906 C 2015.96875 1943.378906 2354.378906 1604.96875 2354.378906 1189 C 2354.378906 773.03125 2015.96875 434.621094 1600 434.621094 Z M 1600 1965 C 1172.109375 1965 824.003906 1616.890625 824.003906 1189 C 824.003906 761.109375 1172.109375 413 1600 413 C 2027.890625 413 2376 761.109375 2376 1189 C 2376 1616.890625 2027.890625 1965 1600 1965 "/>
<path fill-rule="nonzero" fill="rgb(24.560547%, 23.25592%, 10.475159%)" fill-opacity="1" d="M 1396.910156 1009.769531 C 1367.410156 1009.769531 1343.5 1033.679688 1343.5 1063.171875 C 1343.5 1092.671875 1367.410156 1116.578125 1396.910156 1116.578125 C 1426.398438 1116.578125 1450.308594 1092.671875 1450.308594 1063.171875 C 1450.308594 1033.679688 1426.398438 1009.769531 1396.910156 1009.769531 "/>
<path fill-rule="nonzero" fill="rgb(58.151245%, 60.502625%, 13.66272%)" fill-opacity="1" d="M 1396.910156 1272.570312 C 1330.101562 1272.570312 1270.539062 1241.078125 1232.171875 1192.199219 C 1219.039062 1190.210938 1205.890625 1188.289062 1192.71875 1186.589844 C 1085.789062 1172.679688 977.5625 1168.5 869.621094 1173.039062 C 869.550781 1178.300781 869.40625 1183.628906 869.40625 1188.96875 C 869.40625 1194.511719 869.550781 1200.058594 869.621094 1205.539062 C 905.21875 1212.019531 940.742188 1219.371094 975.976562 1227.660156 C 1107.691406 1258.429688 1236.601562 1301.519531 1360.25 1357.210938 C 1425.101562 1324.71875 1490.519531 1295.898438 1555.878906 1270.960938 C 1534.28125 1263.660156 1512.511719 1256.871094 1490.660156 1250.328125 C 1462.429688 1264.53125 1430.601562 1272.570312 1396.910156 1272.570312 "/>
<path fill-rule="nonzero" fill="rgb(24.560547%, 23.25592%, 10.475159%)" fill-opacity="1" d="M 1396.910156 1181.761719 C 1331.421875 1181.761719 1278.320312 1128.671875 1278.320312 1063.171875 C 1278.320312 997.679688 1331.421875 944.589844 1396.910156 944.589844 C 1462.398438 944.589844 1515.488281 997.679688 1515.488281 1063.171875 C 1515.488281 1128.671875 1462.398438 1181.761719 1396.910156 1181.761719 Z M 1396.910156 875.390625 C 1293.199219 875.390625 1209.128906 959.460938 1209.128906 1063.171875 C 1209.128906 1166.878906 1293.199219 1250.960938 1396.910156 1250.960938 C 1500.621094 1250.960938 1584.691406 1166.878906 1584.691406 1063.171875 C 1584.691406 959.460938 1500.621094 875.390625 1396.910156 875.390625 "/>
<path fill-rule="nonzero" fill="rgb(58.151245%, 60.502625%, 13.66272%)" fill-opacity="1" d="M 2327.351562 1173.011719 C 2219.410156 1168.519531 2111.210938 1172.691406 2004.308594 1186.609375 C 1995.371094 1187.761719 1986.480469 1189.160156 1977.558594 1190.441406 C 1954.859375 1238.871094 1905.769531 1272.570312 1848.851562 1272.570312 C 1812.621094 1272.570312 1779.621094 1258.839844 1754.480469 1236.460938 C 1703.929688 1250.140625 1653.941406 1265.839844 1604.699219 1283.53125 C 1475.558594 1329.839844 1351.488281 1389.410156 1233.421875 1458.839844 C 1155.019531 1504.929688 1079.289062 1555.398438 1005.988281 1609.191406 C 1058.96875 1683.941406 1125.71875 1748.230469 1202.519531 1798.429688 C 1273.289062 1727.671875 1348.480469 1661.421875 1428.011719 1600.871094 C 1545.351562 1511.449219 1671.898438 1434.308594 1805.121094 1371.710938 C 1938.308594 1309.03125 2078.078125 1261 2221 1227.640625 C 2256.28125 1219.390625 2291.738281 1212.039062 2327.339844 1205.53125 C 2327.46875 1200.03125 2327.550781 1194.53125 2327.550781 1189 C 2327.550781 1183.660156 2327.46875 1178.328125 2327.351562 1173.011719 "/>
<path fill-rule="nonzero" fill="rgb(24.560547%, 23.25592%, 10.475159%)" fill-opacity="1" d="M 1848.851562 1201.570312 C 1809.519531 1201.570312 1777.640625 1169.691406 1777.640625 1130.359375 C 1777.640625 1091.03125 1809.519531 1059.148438 1848.851562 1059.148438 C 1888.171875 1059.148438 1920.050781 1091.03125 1920.050781 1130.359375 C 1920.050781 1169.691406 1888.171875 1201.570312 1848.851562 1201.570312 Z M 1848.851562 1009.769531 C 1782.238281 1009.769531 1728.25 1063.761719 1728.25 1130.359375 C 1728.25 1196.960938 1782.238281 1250.960938 1848.851562 1250.960938 C 1915.449219 1250.960938 1969.441406 1196.960938 1969.441406 1130.359375 C 1969.441406 1063.761719 1915.449219 1009.769531 1848.851562 1009.769531 "/>
<path fill-rule="nonzero" fill="rgb(24.560547%, 23.25592%, 10.475159%)" fill-opacity="1" d="M 1329.148438 781.789062 L 1329.148438 619.851562 L 1517.5 619.851562 L 1562.289062 781.789062 Z M 1992.988281 833.46875 L 1817.261719 833.46875 L 1817.261719 649.710938 C 1817.261719 638.929688 1826 630.179688 1836.789062 630.179688 L 1848.851562 630.179688 L 1848.851562 600.320312 L 1824.730469 600.320312 C 1781.910156 600.320312 1747.199219 635.03125 1747.199219 677.851562 L 1747.199219 833.46875 L 1655.320312 833.46875 L 1564.589844 560.128906 L 1259.089844 560.128906 L 1259.089844 817.890625 C 1244.378906 826.179688 1230.460938 835.71875 1217.550781 846.429688 C 1204.871094 856.929688 1203.480469 875.921875 1214.210938 888.410156 C 1224.871094 900.820312 1243.351562 901.960938 1255.988281 891.558594 C 1294.328125 860.03125 1343.398438 841.078125 1396.910156 841.078125 C 1519.570312 841.078125 1619 940.511719 1619 1063.171875 C 1619 1065.488281 1618.898438 1067.769531 1618.828125 1070.058594 L 1678.121094 1070.058594 C 1678.148438 1070.03125 1678.179688 1070.011719 1678.210938 1069.96875 C 1678.699219 1049.339844 1676.921875 1029.199219 1673.179688 1009.769531 L 1926.371094 1009.769531 C 1963.511719 969.578125 1984.769531 909.640625 1992.988281 833.46875 "/>
<path fill-rule="nonzero" fill="rgb(35.354614%, 37.086487%, 12.774658%)" fill-opacity="1" d="M 2098 2862.671875 C 2158.210938 2878.289062 2216.96875 2899.371094 2273.160156 2925.769531 C 2254.101562 2935.558594 2235.101562 2946.011719 2216.28125 2957.089844 C 2210.410156 2960.558594 2204.511719 2964.070312 2198.601562 2967.679688 C 2151.75 2932.679688 2101.890625 2901.839844 2049.789062 2875.550781 C 2048.960938 2867.460938 2048.398438 2859.261719 2048.128906 2851 C 2064.828125 2854.511719 2081.46875 2858.398438 2098 2862.671875 "/>
<path fill-rule="nonzero" fill="rgb(20.16449%, 19.297791%, 9.991455%)" fill-opacity="1" d="M 2050.308594 2880.101562 C 2099.488281 2907.050781 2146.300781 2938.128906 2190.160156 2972.890625 C 2162 2990.429688 2133.628906 3009.671875 2105.5 3030.300781 L 2104.941406 3030.710938 C 2075.980469 2986.46875 2056.769531 2935.25 2050.308594 2880.101562 "/>
<path fill-rule="nonzero" fill="rgb(35.354614%, 37.086487%, 12.774658%)" fill-opacity="1" d="M 2573.070312 2988.460938 C 2627.601562 2944.808594 2686.589844 2906.898438 2748.761719 2875.558594 C 2749.601562 2867.460938 2750.148438 2859.269531 2750.421875 2851.011719 C 2733.710938 2854.511719 2717.070312 2858.378906 2700.550781 2862.679688 C 2632.421875 2880.359375 2566.171875 2904.988281 2503.410156 2936.429688 C 2440.628906 2967.839844 2381.371094 3006.019531 2326.730469 3049.820312 C 2290.808594 3078.589844 2256.921875 3109.808594 2225.101562 3142.980469 C 2273.230469 3170.738281 2328.589844 3187.371094 2387.648438 3189.410156 C 2407.808594 3158.359375 2430.371094 3129.019531 2454.621094 3101.308594 C 2490.699219 3060.171875 2530.550781 3022.558594 2573.070312 2988.460938 "/>
<path fill-rule="nonzero" fill="rgb(20.16449%, 19.297791%, 9.991455%)" fill-opacity="1" d="M 2579.71875 2996.480469 C 2538.738281 3031.550781 2500.648438 3069.921875 2466.53125 3111.421875 C 2446.109375 3136.308594 2427.109375 3162.359375 2410.039062 3189.5 C 2585.25 3184.570312 2728.269531 3051.128906 2748.238281 2880.089844 C 2688.171875 2913.019531 2631.621094 2952.128906 2579.71875 2996.480469 "/>
<path fill-rule="nonzero" fill="rgb(58.151245%, 60.502625%, 13.66272%)" fill-opacity="1" d="M 2400 2475.421875 C 2199.519531 2475.421875 2036.421875 2638.519531 2036.421875 2839 C 2036.421875 3039.480469 2199.519531 3202.582031 2400 3202.582031 C 2600.480469 3202.582031 2763.578125 3039.480469 2763.578125 2839 C 2763.578125 2638.519531 2600.480469 2475.421875 2400 2475.421875 Z M 2400 3213 C 2193.78125 3213 2026 3045.230469 2026 2839 C 2026 2632.78125 2193.78125 2465 2400 2465 C 2606.21875 2465 2774 2632.78125 2774 2839 C 2774 3045.230469 2606.21875 3213 2400 3213 "/>
<path fill-rule="nonzero" fill="rgb(24.560547%, 23.25592%, 10.475159%)" fill-opacity="1" d="M 2302.121094 2752.621094 C 2287.898438 2752.621094 2276.378906 2764.140625 2276.378906 2778.359375 C 2276.378906 2792.570312 2287.898438 2804.101562 2302.121094 2804.101562 C 2316.328125 2804.101562 2327.859375 2792.570312 2327.859375 2778.359375 C 2327.859375 2764.140625 2316.328125 2752.621094 2302.121094 2752.621094 "/>
<path fill-rule="nonzero" fill="rgb(58.151245%, 60.502625%, 13.66272%)" fill-opacity="1" d="M 2302.121094 2879.28125 C 2269.921875 2879.28125 2241.210938 2864.101562 2222.71875 2840.539062 C 2216.390625 2839.578125 2210.058594 2838.660156 2203.710938 2837.839844 C 2152.171875 2831.128906 2100.011719 2829.121094 2047.988281 2831.308594 C 2047.949219 2833.839844 2047.878906 2836.410156 2047.878906 2838.980469 C 2047.878906 2841.660156 2047.949219 2844.328125 2047.988281 2846.96875 C 2065.140625 2850.101562 2082.261719 2853.640625 2099.25 2857.628906 C 2162.730469 2872.460938 2224.859375 2893.230469 2284.449219 2920.070312 C 2315.699219 2904.410156 2347.238281 2890.519531 2378.730469 2878.5 C 2368.320312 2874.980469 2357.828125 2871.710938 2347.300781 2868.558594 C 2333.699219 2875.398438 2318.359375 2879.28125 2302.121094 2879.28125 "/>
<path fill-rule="nonzero" fill="rgb(24.560547%, 23.25592%, 10.475159%)" fill-opacity="1" d="M 2302.121094 2835.511719 C 2270.550781 2835.511719 2244.96875 2809.921875 2244.96875 2778.359375 C 2244.96875 2746.789062 2270.550781 2721.199219 2302.121094 2721.199219 C 2333.679688 2721.199219 2359.269531 2746.789062 2359.269531 2778.359375 C 2359.269531 2809.921875 2333.679688 2835.511719 2302.121094 2835.511719 Z M 2302.121094 2687.851562 C 2252.128906 2687.851562 2211.621094 2728.371094 2211.621094 2778.359375 C 2211.621094 2828.339844 2252.128906 2868.859375 2302.121094 2868.859375 C 2352.101562 2868.859375 2392.621094 2828.339844 2392.621094 2778.359375 C 2392.621094 2728.371094 2352.101562 2687.851562 2302.121094 2687.851562 "/>
<path fill-rule="nonzero" fill="rgb(58.151245%, 60.502625%, 13.66272%)" fill-opacity="1" d="M 2750.550781 2831.289062 C 2698.53125 2829.128906 2646.378906 2831.140625 2594.859375 2837.851562 C 2590.550781 2838.398438 2586.269531 2839.078125 2581.96875 2839.699219 C 2571.03125 2863.039062 2547.371094 2879.28125 2519.929688 2879.28125 C 2502.480469 2879.28125 2486.570312 2872.660156 2474.460938 2861.878906 C 2450.089844 2868.46875 2426 2876.03125 2402.269531 2884.558594 C 2340.03125 2906.878906 2280.230469 2935.589844 2223.320312 2969.050781 C 2185.539062 2991.261719 2149.039062 3015.589844 2113.710938 3041.511719 C 2139.238281 3077.539062 2171.421875 3108.53125 2208.429688 3132.71875 C 2242.539062 3098.609375 2278.78125 3066.691406 2317.109375 3037.511719 C 2373.660156 2994.410156 2434.648438 2957.230469 2498.859375 2927.058594 C 2563.050781 2896.851562 2630.421875 2873.699219 2699.300781 2857.621094 C 2716.300781 2853.640625 2733.390625 2850.101562 2750.550781 2846.96875 C 2750.609375 2844.320312 2750.648438 2841.660156 2750.648438 2839 C 2750.648438 2836.421875 2750.609375 2833.859375 2750.550781 2831.289062 "/>
<path fill-rule="nonzero" fill="rgb(24.560547%, 23.25592%, 10.475159%)" fill-opacity="1" d="M 2519.929688 2845.058594 C 2500.980469 2845.058594 2485.621094 2829.691406 2485.621094 2810.738281 C 2485.621094 2791.78125 2500.980469 2776.421875 2519.929688 2776.421875 C 2538.890625 2776.421875 2554.25 2791.78125 2554.25 2810.738281 C 2554.25 2829.691406 2538.890625 2845.058594 2519.929688 2845.058594 Z M 2519.929688 2752.621094 C 2487.828125 2752.621094 2461.808594 2778.640625 2461.808594 2810.738281 C 2461.808594 2842.839844 2487.828125 2868.859375 2519.929688 2868.859375 C 2552.03125 2868.859375 2578.058594 2842.839844 2578.058594 2810.738281 C 2578.058594 2778.640625 2552.03125 2752.621094 2519.929688 2752.621094 "/>
<path fill-rule="nonzero" fill="rgb(24.560547%, 23.25592%, 10.475159%)" fill-opacity="1" d="M 2269.460938 2642.738281 L 2269.460938 2564.691406 L 2360.238281 2564.691406 L 2381.828125 2642.738281 Z M 2589.398438 2667.648438 L 2504.710938 2667.648438 L 2504.710938 2579.078125 C 2504.710938 2573.890625 2508.921875 2569.671875 2514.121094 2569.671875 L 2519.929688 2569.671875 L 2519.929688 2555.28125 L 2508.308594 2555.28125 C 2487.671875 2555.28125 2470.949219 2572.011719 2470.949219 2592.648438 L 2470.949219 2667.648438 L 2426.660156 2667.648438 L 2382.929688 2535.910156 L 2235.691406 2535.910156 L 2235.691406 2660.140625 C 2228.609375 2664.140625 2221.898438 2668.730469 2215.671875 2673.890625 C 2209.558594 2678.960938 2208.890625 2688.109375 2214.058594 2694.128906 C 2219.199219 2700.109375 2228.109375 2700.660156 2234.199219 2695.648438 C 2252.679688 2680.449219 2276.328125 2671.320312 2302.121094 2671.320312 C 2361.230469 2671.320312 2409.160156 2719.238281 2409.160156 2778.359375 C 2409.160156 2779.46875 2409.109375 2780.570312 2409.070312 2781.679688 L 2437.648438 2781.679688 C 2437.671875 2781.660156 2437.679688 2781.648438 2437.699219 2781.628906 C 2437.929688 2771.691406 2437.070312 2761.988281 2435.269531 2752.621094 L 2557.300781 2752.621094 C 2575.199219 2733.25 2585.449219 2704.359375 2589.398438 2667.648438 "/>
<path fill-rule="nonzero" fill="rgb(20.16449%, 19.297791%, 9.991455%)" fill-opacity="1" d="M 497.996094 2862.671875 C 558.214844 2878.289062 616.972656 2899.371094 673.160156 2925.769531 C 654.097656 2935.558594 635.101562 2946.011719 616.277344 2957.089844 C 610.410156 2960.558594 604.503906 2964.070312 598.601562 2967.679688 C 551.753906 2932.679688 501.886719 2901.839844 449.792969 2875.550781 C 448.960938 2867.460938 448.40625 2859.261719 448.128906 2851 C 464.832031 2854.511719 481.464844 2858.398438 497.996094 2862.671875 "/>
<path fill-rule="nonzero" fill="rgb(20.16449%, 19.297791%, 9.991455%)" fill-opacity="1" d="M 450.316406 2880.101562 C 499.488281 2907.050781 546.300781 2938.128906 590.164062 2972.890625 C 562 2990.429688 533.625 3009.671875 505.496094 3030.300781 L 504.941406 3030.710938 C 475.976562 2986.46875 456.773438 2935.25 450.316406 2880.101562 "/>
<path fill-rule="nonzero" fill="rgb(20.16449%, 19.297791%, 9.991455%)" fill-opacity="1" d="M 973.066406 2988.460938 C 1027.601562 2944.808594 1086.589844 2906.898438 1148.761719 2875.558594 C 1149.601562 2867.460938 1150.148438 2859.269531 1150.421875 2851.011719 C 1133.710938 2854.511719 1117.070312 2858.378906 1100.550781 2862.679688 C 1032.421875 2880.359375 966.175781 2904.988281 903.410156 2936.429688 C 840.628906 2967.839844 781.367188 3006.019531 726.730469 3049.820312 C 690.8125 3078.589844 656.925781 3109.808594 625.097656 3142.980469 C 673.234375 3170.738281 728.585938 3187.371094 787.644531 3189.410156 C 807.8125 3158.359375 830.363281 3129.019531 854.613281 3101.308594 C 890.703125 3060.171875 930.546875 3022.558594 973.066406 2988.460938 "/>
<path fill-rule="nonzero" fill="rgb(20.16449%, 19.297791%, 9.991455%)" fill-opacity="1" d="M 979.714844 2996.480469 C 938.742188 3031.550781 900.648438 3069.921875 866.527344 3111.421875 C 846.109375 3136.308594 827.113281 3162.359375 810.042969 3189.5 C 985.246094 3184.570312 1128.269531 3051.128906 1148.238281 2880.089844 C 1088.171875 2913.019531 1031.621094 2952.128906 979.714844 2996.480469 "/>
<path fill-rule="nonzero" fill="rgb(20.16449%, 19.297791%, 9.991455%)" fill-opacity="1" d="M 799.996094 2475.421875 C 599.519531 2475.421875 436.417969 2638.519531 436.417969 2839 C 436.417969 3039.480469 599.519531 3202.582031 799.996094 3202.582031 C 1000.480469 3202.582031 1163.578125 3039.480469 1163.578125 2839 C 1163.578125 2638.519531 1000.480469 2475.421875 799.996094 2475.421875 Z M 799.996094 3213 C 593.777344 3213 426 3045.230469 426 2839 C 426 2632.78125 593.777344 2465 799.996094 2465 C 1006.21875 2465 1174 2632.78125 1174 2839 C 1174 3045.230469 1006.21875 3213 799.996094 3213 "/>
<path fill-rule="nonzero" fill="rgb(20.16449%, 19.297791%, 9.991455%)" fill-opacity="1" d="M 702.117188 2752.621094 C 687.902344 2752.621094 676.378906 2764.140625 676.378906 2778.359375 C 676.378906 2792.570312 687.902344 2804.101562 702.117188 2804.101562 C 716.332031 2804.101562 727.855469 2792.570312 727.855469 2778.359375 C 727.855469 2764.140625 716.332031 2752.621094 702.117188 2752.621094 "/>
<path fill-rule="nonzero" fill="rgb(20.16449%, 19.297791%, 9.991455%)" fill-opacity="1" d="M 702.121094 2879.28125 C 669.917969 2879.28125 641.210938 2864.101562 622.71875 2840.539062 C 616.390625 2839.578125 610.058594 2838.660156 603.707031 2837.839844 C 552.171875 2831.128906 500.011719 2829.121094 447.988281 2831.308594 C 447.953125 2833.839844 447.882812 2836.410156 447.882812 2838.980469 C 447.882812 2841.660156 447.953125 2844.328125 447.988281 2846.96875 C 465.144531 2850.101562 482.265625 2853.640625 499.246094 2857.628906 C 562.726562 2872.460938 624.855469 2893.230469 684.449219 2920.070312 C 715.703125 2904.410156 747.234375 2890.519531 778.734375 2878.5 C 768.324219 2874.980469 757.832031 2871.710938 747.300781 2868.558594 C 733.699219 2875.398438 718.355469 2879.28125 702.121094 2879.28125 "/>
<path fill-rule="nonzero" fill="rgb(20.16449%, 19.297791%, 9.991455%)" fill-opacity="1" d="M 702.117188 2835.511719 C 670.554688 2835.511719 644.964844 2809.921875 644.964844 2778.359375 C 644.964844 2746.789062 670.554688 2721.199219 702.117188 2721.199219 C 733.683594 2721.199219 759.269531 2746.789062 759.269531 2778.359375 C 759.269531 2809.921875 733.683594 2835.511719 702.117188 2835.511719 Z M 702.117188 2687.851562 C 652.136719 2687.851562 611.613281 2728.371094 611.613281 2778.359375 C 611.613281 2828.339844 652.136719 2868.859375 702.117188 2868.859375 C 752.101562 2868.859375 792.621094 2828.339844 792.621094 2778.359375 C 792.621094 2728.371094 752.101562 2687.851562 702.117188 2687.851562 "/>
<path fill-rule="nonzero" fill="rgb(20.16449%, 19.297791%, 9.991455%)" fill-opacity="1" d="M 1150.550781 2831.289062 C 1098.53125 2829.128906 1046.378906 2831.140625 994.859375 2837.851562 C 990.554688 2838.398438 986.265625 2839.078125 981.96875 2839.699219 C 971.027344 2863.039062 947.371094 2879.28125 919.933594 2879.28125 C 902.476562 2879.28125 886.570312 2872.660156 874.453125 2861.878906 C 850.089844 2868.46875 826 2876.03125 802.265625 2884.558594 C 740.027344 2906.878906 680.230469 2935.589844 623.324219 2969.050781 C 585.539062 2991.261719 549.039062 3015.589844 513.710938 3041.511719 C 539.242188 3077.539062 571.417969 3108.53125 608.433594 3132.71875 C 642.539062 3098.609375 678.777344 3066.691406 717.105469 3037.511719 C 773.660156 2994.410156 834.652344 2957.230469 898.859375 2927.058594 C 963.054688 2896.851562 1030.421875 2873.699219 1099.300781 2857.621094 C 1116.300781 2853.640625 1133.390625 2850.101562 1150.550781 2846.96875 C 1150.609375 2844.320312 1150.648438 2841.660156 1150.648438 2839 C 1150.648438 2836.421875 1150.609375 2833.859375 1150.550781 2831.289062 "/>
<path fill-rule="nonzero" fill="rgb(20.16449%, 19.297791%, 9.991455%)" fill-opacity="1" d="M 919.933594 2845.058594 C 900.980469 2845.058594 885.613281 2829.691406 885.613281 2810.738281 C 885.613281 2791.78125 900.980469 2776.421875 919.933594 2776.421875 C 938.886719 2776.421875 954.253906 2791.78125 954.253906 2810.738281 C 954.253906 2829.691406 938.886719 2845.058594 919.933594 2845.058594 Z M 919.933594 2752.621094 C 887.835938 2752.621094 861.8125 2778.640625 861.8125 2810.738281 C 861.8125 2842.839844 887.835938 2868.859375 919.933594 2868.859375 C 952.035156 2868.859375 978.054688 2842.839844 978.054688 2810.738281 C 978.054688 2778.640625 952.035156 2752.621094 919.933594 2752.621094 "/>
<path fill-rule="nonzero" fill="rgb(20.16449%, 19.297791%, 9.991455%)" fill-opacity="1" d="M 669.460938 2642.738281 L 669.460938 2564.691406 L 760.238281 2564.691406 L 781.828125 2642.738281 Z M 989.402344 2667.648438 L 904.710938 2667.648438 L 904.710938 2579.078125 C 904.710938 2573.890625 908.925781 2569.671875 914.121094 2569.671875 L 919.933594 2569.671875 L 919.933594 2555.28125 L 908.308594 2555.28125 C 887.675781 2555.28125 870.945312 2572.011719 870.945312 2592.648438 L 870.945312 2667.648438 L 826.664062 2667.648438 L 782.933594 2535.910156 L 635.695312 2535.910156 L 635.695312 2660.140625 C 628.605469 2664.140625 621.898438 2668.730469 615.675781 2673.890625 C 609.5625 2678.960938 608.894531 2688.109375 614.0625 2694.128906 C 619.203125 2700.109375 628.109375 2700.660156 634.203125 2695.648438 C 652.679688 2680.449219 676.328125 2671.320312 702.117188 2671.320312 C 761.234375 2671.320312 809.15625 2719.238281 809.15625 2778.359375 C 809.15625 2779.46875 809.105469 2780.570312 809.074219 2781.679688 L 837.648438 2781.679688 C 837.667969 2781.660156 837.679688 2781.648438 837.695312 2781.628906 C 837.929688 2771.691406 837.070312 2761.988281 835.269531 2752.621094 L 957.296875 2752.621094 C 975.199219 2733.25 985.445312 2704.359375 989.402344 2667.648438 "/>
<path fill-rule="nonzero" fill="rgb(46.992493%, 78.140259%, 16.691589%)" fill-opacity="1" d="M 3698 2862.671875 C 3758.210938 2878.289062 3816.96875 2899.371094 3873.160156 2925.769531 C 3854.101562 2935.558594 3835.101562 2946.011719 3816.28125 2957.089844 C 3810.410156 2960.558594 3804.511719 2964.070312 3798.601562 2967.679688 C 3751.75 2932.679688 3701.890625 2901.839844 3649.789062 2875.550781 C 3648.960938 2867.460938 3648.398438 2859.261719 3648.128906 2851 C 3664.828125 2854.511719 3681.46875 2858.398438 3698 2862.671875 "/>
<path fill-rule="nonzero" fill="rgb(46.992493%, 78.140259%, 16.691589%)" fill-opacity="1" d="M 3650.308594 2880.101562 C 3699.488281 2907.050781 3746.300781 2938.128906 3790.160156 2972.890625 C 3762 2990.429688 3733.628906 3009.671875 3705.5 3030.300781 L 3704.941406 3030.710938 C 3675.980469 2986.46875 3656.769531 2935.25 3650.308594 2880.101562 "/>
<path fill-rule="nonzero" fill="rgb(46.992493%, 78.140259%, 16.691589%)" fill-opacity="1" d="M 4173.070312 2988.460938 C 4227.601562 2944.808594 4286.589844 2906.898438 4348.761719 2875.558594 C 4349.601562 2867.460938 4350.148438 2859.269531 4350.421875 2851.011719 C 4333.710938 2854.511719 4317.070312 2858.378906 4300.550781 2862.679688 C 4232.421875 2880.359375 4166.171875 2904.988281 4103.410156 2936.429688 C 4040.628906 2967.839844 3981.371094 3006.019531 3926.730469 3049.820312 C 3890.808594 3078.589844 3856.921875 3109.808594 3825.101562 3142.980469 C 3873.230469 3170.738281 3928.589844 3187.371094 3987.648438 3189.410156 C 4007.808594 3158.359375 4030.371094 3129.019531 4054.621094 3101.308594 C 4090.699219 3060.171875 4130.550781 3022.558594 4173.070312 2988.460938 "/>
<path fill-rule="nonzero" fill="rgb(46.992493%, 78.140259%, 16.691589%)" fill-opacity="1" d="M 4179.71875 2996.480469 C 4138.738281 3031.550781 4100.648438 3069.921875 4066.53125 3111.421875 C 4046.109375 3136.308594 4027.109375 3162.359375 4010.039062 3189.5 C 4185.25 3184.570312 4328.269531 3051.128906 4348.238281 2880.089844 C 4288.171875 2913.019531 4231.621094 2952.128906 4179.71875 2996.480469 "/>
<path fill-rule="nonzero" fill="rgb(46.992493%, 78.140259%, 16.691589%)" fill-opacity="1" d="M 4000 2475.421875 C 3799.519531 2475.421875 3636.421875 2638.519531 3636.421875 2839 C 3636.421875 3039.480469 3799.519531 3202.582031 4000 3202.582031 C 4200.480469 3202.582031 4363.578125 3039.480469 4363.578125 2839 C 4363.578125 2638.519531 4200.480469 2475.421875 4000 2475.421875 Z M 4000 3213 C 3793.78125 3213 3626 3045.230469 3626 2839 C 3626 2632.78125 3793.78125 2465 4000 2465 C 4206.21875 2465 4374 2632.78125 4374 2839 C 4374 3045.230469 4206.21875 3213 4000 3213 "/>
<path fill-rule="nonzero" fill="rgb(46.992493%, 78.140259%, 16.691589%)" fill-opacity="1" d="M 3902.121094 2752.621094 C 3887.898438 2752.621094 3876.378906 2764.140625 3876.378906 2778.359375 C 3876.378906 2792.570312 3887.898438 2804.101562 3902.121094 2804.101562 C 3916.328125 2804.101562 3927.859375 2792.570312 3927.859375 2778.359375 C 3927.859375 2764.140625 3916.328125 2752.621094 3902.121094 2752.621094 "/>
<path fill-rule="nonzero" fill="rgb(46.992493%, 78.140259%, 16.691589%)" fill-opacity="1" d="M 3902.121094 2879.28125 C 3869.921875 2879.28125 3841.210938 2864.101562 3822.71875 2840.539062 C 3816.390625 2839.578125 3810.058594 2838.660156 3803.710938 2837.839844 C 3752.171875 2831.128906 3700.011719 2829.121094 3647.988281 2831.308594 C 3647.949219 2833.839844 3647.878906 2836.410156 3647.878906 2838.980469 C 3647.878906 2841.660156 3647.949219 2844.328125 3647.988281 2846.96875 C 3665.140625 2850.101562 3682.261719 2853.640625 3699.25 2857.628906 C 3762.730469 2872.460938 3824.859375 2893.230469 3884.449219 2920.070312 C 3915.699219 2904.410156 3947.238281 2890.519531 3978.730469 2878.5 C 3968.320312 2874.980469 3957.828125 2871.710938 3947.300781 2868.558594 C 3933.699219 2875.398438 3918.359375 2879.28125 3902.121094 2879.28125 "/>
<path fill-rule="nonzero" fill="rgb(46.992493%, 78.140259%, 16.691589%)" fill-opacity="1" d="M 3902.121094 2835.511719 C 3870.550781 2835.511719 3844.96875 2809.921875 3844.96875 2778.359375 C 3844.96875 2746.789062 3870.550781 2721.199219 3902.121094 2721.199219 C 3933.679688 2721.199219 3959.269531 2746.789062 3959.269531 2778.359375 C 3959.269531 2809.921875 3933.679688 2835.511719 3902.121094 2835.511719 Z M 3902.121094 2687.851562 C 3852.128906 2687.851562 3811.621094 2728.371094 3811.621094 2778.359375 C 3811.621094 2828.339844 3852.128906 2868.859375 3902.121094 2868.859375 C 3952.101562 2868.859375 3992.621094 2828.339844 3992.621094 2778.359375 C 3992.621094 2728.371094 3952.101562 2687.851562 3902.121094 2687.851562 "/>
<path fill-rule="nonzero" fill="rgb(46.992493%, 78.140259%, 16.691589%)" fill-opacity="1" d="M 4350.550781 2831.289062 C 4298.53125 2829.128906 4246.378906 2831.140625 4194.859375 2837.851562 C 4190.550781 2838.398438 4186.269531 2839.078125 4181.96875 2839.699219 C 4171.03125 2863.039062 4147.371094 2879.28125 4119.929688 2879.28125 C 4102.480469 2879.28125 4086.570312 2872.660156 4074.460938 2861.878906 C 4050.089844 2868.46875 4026 2876.03125 4002.269531 2884.558594 C 3940.03125 2906.878906 3880.230469 2935.589844 3823.320312 2969.050781 C 3785.539062 2991.261719 3749.039062 3015.589844 3713.710938 3041.511719 C 3739.238281 3077.539062 3771.421875 3108.53125 3808.429688 3132.71875 C 3842.539062 3098.609375 3878.78125 3066.691406 3917.109375 3037.511719 C 3973.660156 2994.410156 4034.648438 2957.230469 4098.859375 2927.058594 C 4163.050781 2896.851562 4230.421875 2873.699219 4299.300781 2857.621094 C 4316.300781 2853.640625 4333.390625 2850.101562 4350.550781 2846.96875 C 4350.609375 2844.320312 4350.648438 2841.660156 4350.648438 2839 C 4350.648438 2836.421875 4350.609375 2833.859375 4350.550781 2831.289062 "/>
<path fill-rule="nonzero" fill="rgb(46.992493%, 78.140259%, 16.691589%)" fill-opacity="1" d="M 4119.929688 2845.058594 C 4100.980469 2845.058594 4085.621094 2829.691406 4085.621094 2810.738281 C 4085.621094 2791.78125 4100.980469 2776.421875 4119.929688 2776.421875 C 4138.890625 2776.421875 4154.25 2791.78125 4154.25 2810.738281 C 4154.25 2829.691406 4138.890625 2845.058594 4119.929688 2845.058594 Z M 4119.929688 2752.621094 C 4087.828125 2752.621094 4061.808594 2778.640625 4061.808594 2810.738281 C 4061.808594 2842.839844 4087.828125 2868.859375 4119.929688 2868.859375 C 4152.03125 2868.859375 4178.058594 2842.839844 4178.058594 2810.738281 C 4178.058594 2778.640625 4152.03125 2752.621094 4119.929688 2752.621094 "/>
<path fill-rule="nonzero" fill="rgb(46.992493%, 78.140259%, 16.691589%)" fill-opacity="1" d="M 3869.460938 2642.738281 L 3869.460938 2564.691406 L 3960.238281 2564.691406 L 3981.828125 2642.738281 Z M 4189.398438 2667.648438 L 4104.710938 2667.648438 L 4104.710938 2579.078125 C 4104.710938 2573.890625 4108.921875 2569.671875 4114.121094 2569.671875 L 4119.929688 2569.671875 L 4119.929688 2555.28125 L 4108.308594 2555.28125 C 4087.671875 2555.28125 4070.949219 2572.011719 4070.949219 2592.648438 L 4070.949219 2667.648438 L 4026.660156 2667.648438 L 3982.929688 2535.910156 L 3835.691406 2535.910156 L 3835.691406 2660.140625 C 3828.609375 2664.140625 3821.898438 2668.730469 3815.671875 2673.890625 C 3809.558594 2678.960938 3808.890625 2688.109375 3814.058594 2694.128906 C 3819.199219 2700.109375 3828.109375 2700.660156 3834.199219 2695.648438 C 3852.679688 2680.449219 3876.328125 2671.320312 3902.121094 2671.320312 C 3961.230469 2671.320312 4009.160156 2719.238281 4009.160156 2778.359375 C 4009.160156 2779.46875 4009.109375 2780.570312 4009.070312 2781.679688 L 4037.648438 2781.679688 C 4037.671875 2781.660156 4037.679688 2781.648438 4037.699219 2781.628906 C 4037.929688 2771.691406 4037.070312 2761.988281 4035.269531 2752.621094 L 4157.300781 2752.621094 C 4175.199219 2733.25 4185.449219 2704.359375 4189.398438 2667.648438 "/>
<path fill-rule="nonzero" fill="rgb(6.266785%, 5.734253%, 5.047607%)" fill-opacity="1" d="M 3698 1807.171875 C 3758.210938 1822.800781 3816.96875 1843.871094 3873.160156 1870.269531 C 3854.101562 1880.058594 3835.101562 1890.511719 3816.28125 1901.589844 C 3810.410156 1905.058594 3804.511719 1908.570312 3798.601562 1912.179688 C 3751.75 1877.179688 3701.890625 1846.339844 3649.789062 1820.050781 C 3648.960938 1811.960938 3648.398438 1803.761719 3648.128906 1795.5 C 3664.828125 1799.011719 3681.46875 1802.898438 3698 1807.171875 "/>
<path fill-rule="nonzero" fill="rgb(6.266785%, 5.734253%, 5.047607%)" fill-opacity="1" d="M 3650.308594 1824.601562 C 3699.488281 1851.550781 3746.300781 1882.628906 3790.160156 1917.390625 C 3762 1934.929688 3733.628906 1954.171875 3705.5 1974.800781 L 3704.941406 1975.210938 C 3675.980469 1930.96875 3656.769531 1879.75 3650.308594 1824.601562 "/>
<path fill-rule="nonzero" fill="rgb(6.266785%, 5.734253%, 5.047607%)" fill-opacity="1" d="M 4173.070312 1932.960938 C 4227.601562 1889.308594 4286.589844 1851.390625 4348.761719 1820.058594 C 4349.601562 1811.960938 4350.148438 1803.769531 4350.421875 1795.511719 C 4333.710938 1799.011719 4317.070312 1802.878906 4300.550781 1807.179688 C 4232.421875 1824.859375 4166.171875 1849.488281 4103.410156 1880.929688 C 4040.628906 1912.339844 3981.371094 1950.519531 3926.730469 1994.320312 C 3890.808594 2023.089844 3856.921875 2054.308594 3825.101562 2087.480469 C 3873.230469 2115.238281 3928.589844 2131.871094 3987.648438 2133.910156 C 4007.808594 2102.859375 4030.371094 2073.519531 4054.621094 2045.808594 C 4090.699219 2004.671875 4130.550781 1967.058594 4173.070312 1932.960938 "/>
<path fill-rule="nonzero" fill="rgb(6.266785%, 5.734253%, 5.047607%)" fill-opacity="1" d="M 4179.71875 1940.980469 C 4138.738281 1976.050781 4100.648438 2014.421875 4066.53125 2055.921875 C 4046.109375 2080.808594 4027.109375 2106.859375 4010.039062 2134 C 4185.25 2129.070312 4328.269531 1995.628906 4348.238281 1824.589844 C 4288.171875 1857.519531 4231.621094 1896.628906 4179.71875 1940.980469 "/>
<path fill-rule="nonzero" fill="rgb(6.266785%, 5.734253%, 5.047607%)" fill-opacity="1" d="M 4000 1419.921875 C 3799.519531 1419.921875 3636.421875 1583.019531 3636.421875 1783.5 C 3636.421875 1983.980469 3799.519531 2147.078125 4000 2147.078125 C 4200.480469 2147.078125 4363.578125 1983.980469 4363.578125 1783.5 C 4363.578125 1583.019531 4200.480469 1419.921875 4000 1419.921875 Z M 4000 2157.5 C 3793.78125 2157.5 3626 1989.730469 3626 1783.5 C 3626 1577.28125 3793.78125 1409.5 4000 1409.5 C 4206.21875 1409.5 4374 1577.28125 4374 1783.5 C 4374 1989.730469 4206.21875 2157.5 4000 2157.5 "/>
<path fill-rule="nonzero" fill="rgb(6.266785%, 5.734253%, 5.047607%)" fill-opacity="1" d="M 3902.121094 1697.121094 C 3887.898438 1697.121094 3876.378906 1708.640625 3876.378906 1722.859375 C 3876.378906 1737.070312 3887.898438 1748.601562 3902.121094 1748.601562 C 3916.328125 1748.601562 3927.859375 1737.070312 3927.859375 1722.859375 C 3927.859375 1708.640625 3916.328125 1697.121094 3902.121094 1697.121094 "/>
<path fill-rule="nonzero" fill="rgb(6.266785%, 5.734253%, 5.047607%)" fill-opacity="1" d="M 3902.121094 1823.78125 C 3869.921875 1823.78125 3841.210938 1808.601562 3822.71875 1785.039062 C 3816.390625 1784.078125 3810.058594 1783.160156 3803.710938 1782.339844 C 3752.171875 1775.628906 3700.011719 1773.621094 3647.988281 1775.808594 C 3647.949219 1778.339844 3647.878906 1780.910156 3647.878906 1783.480469 C 3647.878906 1786.160156 3647.949219 1788.828125 3647.988281 1791.46875 C 3665.140625 1794.601562 3682.261719 1798.140625 3699.25 1802.128906 C 3762.730469 1816.960938 3824.859375 1837.730469 3884.449219 1864.570312 C 3915.699219 1848.910156 3947.238281 1835.019531 3978.730469 1823 C 3968.320312 1819.480469 3957.828125 1816.210938 3947.300781 1813.058594 C 3933.699219 1819.898438 3918.359375 1823.78125 3902.121094 1823.78125 "/>
<path fill-rule="nonzero" fill="rgb(6.266785%, 5.734253%, 5.047607%)" fill-opacity="1" d="M 3902.121094 1780.011719 C 3870.550781 1780.011719 3844.96875 1754.421875 3844.96875 1722.859375 C 3844.96875 1691.289062 3870.550781 1665.699219 3902.121094 1665.699219 C 3933.679688 1665.699219 3959.269531 1691.289062 3959.269531 1722.859375 C 3959.269531 1754.421875 3933.679688 1780.011719 3902.121094 1780.011719 Z M 3902.121094 1632.351562 C 3852.128906 1632.351562 3811.621094 1672.871094 3811.621094 1722.859375 C 3811.621094 1772.839844 3852.128906 1813.359375 3902.121094 1813.359375 C 3952.101562 1813.359375 3992.621094 1772.839844 3992.621094 1722.859375 C 3992.621094 1672.871094 3952.101562 1632.351562 3902.121094 1632.351562 "/>
<path fill-rule="nonzero" fill="rgb(6.266785%, 5.734253%, 5.047607%)" fill-opacity="1" d="M 4350.550781 1775.800781 C 4298.53125 1773.628906 4246.378906 1775.640625 4194.859375 1782.351562 C 4190.550781 1782.898438 4186.269531 1783.578125 4181.96875 1784.199219 C 4171.03125 1807.539062 4147.371094 1823.78125 4119.929688 1823.78125 C 4102.480469 1823.78125 4086.570312 1817.160156 4074.460938 1806.378906 C 4050.089844 1812.96875 4026 1820.53125 4002.269531 1829.058594 C 3940.03125 1851.378906 3880.230469 1880.089844 3823.320312 1913.550781 C 3785.539062 1935.761719 3749.039062 1960.089844 3713.710938 1986.011719 C 3739.238281 2022.039062 3771.421875 2053.03125 3808.429688 2077.21875 C 3842.539062 2043.109375 3878.78125 2011.191406 3917.109375 1982.011719 C 3973.660156 1938.910156 4034.648438 1901.730469 4098.859375 1871.558594 C 4163.050781 1841.351562 4230.421875 1818.199219 4299.300781 1802.121094 C 4316.300781 1798.140625 4333.390625 1794.601562 4350.550781 1791.46875 C 4350.609375 1788.820312 4350.648438 1786.160156 4350.648438 1783.5 C 4350.648438 1780.921875 4350.609375 1778.359375 4350.550781 1775.800781 "/>
<path fill-rule="nonzero" fill="rgb(6.266785%, 5.734253%, 5.047607%)" fill-opacity="1" d="M 4119.929688 1789.558594 C 4100.980469 1789.558594 4085.621094 1774.191406 4085.621094 1755.238281 C 4085.621094 1736.28125 4100.980469 1720.921875 4119.929688 1720.921875 C 4138.890625 1720.921875 4154.25 1736.28125 4154.25 1755.238281 C 4154.25 1774.191406 4138.890625 1789.558594 4119.929688 1789.558594 Z M 4119.929688 1697.121094 C 4087.828125 1697.121094 4061.808594 1723.140625 4061.808594 1755.238281 C 4061.808594 1787.339844 4087.828125 1813.359375 4119.929688 1813.359375 C 4152.03125 1813.359375 4178.058594 1787.339844 4178.058594 1755.238281 C 4178.058594 1723.140625 4152.03125 1697.121094 4119.929688 1697.121094 "/>
<path fill-rule="nonzero" fill="rgb(6.266785%, 5.734253%, 5.047607%)" fill-opacity="1" d="M 3869.460938 1587.238281 L 3869.460938 1509.191406 L 3960.238281 1509.191406 L 3981.828125 1587.238281 Z M 4189.398438 1612.148438 L 4104.710938 1612.148438 L 4104.710938 1523.578125 C 4104.710938 1518.390625 4108.921875 1514.171875 4114.121094 1514.171875 L 4119.929688 1514.171875 L 4119.929688 1499.78125 L 4108.308594 1499.78125 C 4087.671875 1499.78125 4070.949219 1516.511719 4070.949219 1537.148438 L 4070.949219 1612.148438 L 4026.660156 1612.148438 L 3982.929688 1480.410156 L 3835.691406 1480.410156 L 3835.691406 1604.640625 C 3828.609375 1608.640625 3821.898438 1613.230469 3815.671875 1618.390625 C 3809.558594 1623.460938 3808.890625 1632.609375 3814.058594 1638.628906 C 3819.199219 1644.609375 3828.109375 1645.160156 3834.199219 1640.148438 C 3852.679688 1624.949219 3876.328125 1615.820312 3902.121094 1615.820312 C 3961.230469 1615.820312 4009.160156 1663.738281 4009.160156 1722.859375 C 4009.160156 1723.96875 4009.109375 1725.070312 4009.070312 1726.179688 L 4037.648438 1726.179688 C 4037.671875 1726.160156 4037.679688 1726.148438 4037.699219 1726.128906 C 4037.929688 1716.191406 4037.070312 1706.488281 4035.269531 1697.121094 L 4157.300781 1697.121094 C 4175.199219 1677.75 4185.449219 1648.859375 4189.398438 1612.148438 "/>
<path fill-rule="nonzero" fill="rgb(100%, 100%, 100%)" fill-opacity="1" d="M 3698 618.171875 C 3758.210938 633.789062 3816.96875 654.871094 3873.160156 681.269531 C 3854.101562 691.058594 3835.101562 701.511719 3816.28125 712.589844 C 3810.410156 716.058594 3804.511719 719.570312 3798.601562 723.179688 C 3751.75 688.179688 3701.890625 657.339844 3649.789062 631.050781 C 3648.960938 622.960938 3648.398438 614.761719 3648.128906 606.5 C 3664.828125 610.011719 3681.46875 613.898438 3698 618.171875 "/>
<path fill-rule="nonzero" fill="rgb(100%, 100%, 100%)" fill-opacity="1" d="M 3650.308594 635.601562 C 3699.488281 662.550781 3746.300781 693.628906 3790.160156 728.390625 C 3762 745.929688 3733.628906 765.171875 3705.5 785.800781 L 3704.941406 786.210938 C 3675.980469 741.96875 3656.769531 690.75 3650.308594 635.601562 "/>
<path fill-rule="nonzero" fill="rgb(100%, 100%, 100%)" fill-opacity="1" d="M 4173.070312 743.960938 C 4227.601562 700.308594 4286.589844 662.390625 4348.761719 631.058594 C 4349.601562 622.960938 4350.148438 614.769531 4350.421875 606.511719 C 4333.710938 610.011719 4317.070312 613.878906 4300.550781 618.179688 C 4232.421875 635.859375 4166.171875 660.488281 4103.410156 691.929688 C 4040.628906 723.339844 3981.371094 761.519531 3926.730469 805.320312 C 3890.808594 834.089844 3856.921875 865.308594 3825.101562 898.480469 C 3873.230469 926.238281 3928.589844 942.871094 3987.648438 944.910156 C 4007.808594 913.859375 4030.371094 884.519531 4054.621094 856.808594 C 4090.699219 815.671875 4130.550781 778.058594 4173.070312 743.960938 "/>
<path fill-rule="nonzero" fill="rgb(100%, 100%, 100%)" fill-opacity="1" d="M 4179.71875 751.980469 C 4138.738281 787.050781 4100.648438 825.421875 4066.53125 866.921875 C 4046.109375 891.808594 4027.109375 917.859375 4010.039062 945 C 4185.25 940.070312 4328.269531 806.628906 4348.238281 635.589844 C 4288.171875 668.519531 4231.621094 707.628906 4179.71875 751.980469 "/>
<path fill-rule="nonzero" fill="rgb(100%, 100%, 100%)" fill-opacity="1" d="M 4000 230.921875 C 3799.519531 230.921875 3636.421875 394.019531 3636.421875 594.5 C 3636.421875 794.980469 3799.519531 958.078125 4000 958.078125 C 4200.480469 958.078125 4363.578125 794.980469 4363.578125 594.5 C 4363.578125 394.019531 4200.480469 230.921875 4000 230.921875 Z M 4000 968.5 C 3793.78125 968.5 3626 800.71875 3626 594.5 C 3626 388.28125 3793.78125 220.5 4000 220.5 C 4206.21875 220.5 4374 388.28125 4374 594.5 C 4374 800.71875 4206.21875 968.5 4000 968.5 "/>
<path fill-rule="nonzero" fill="rgb(100%, 100%, 100%)" fill-opacity="1" d="M 3902.121094 508.121094 C 3887.898438 508.121094 3876.378906 519.640625 3876.378906 533.859375 C 3876.378906 548.070312 3887.898438 559.601562 3902.121094 559.601562 C 3916.328125 559.601562 3927.859375 548.070312 3927.859375 533.859375 C 3927.859375 519.640625 3916.328125 508.121094 3902.121094 508.121094 "/>
<path fill-rule="nonzero" fill="rgb(100%, 100%, 100%)" fill-opacity="1" d="M 3902.121094 634.78125 C 3869.921875 634.78125 3841.210938 619.601562 3822.71875 596.039062 C 3816.390625 595.078125 3810.058594 594.160156 3803.710938 593.339844 C 3752.171875 586.628906 3700.011719 584.621094 3647.988281 586.808594 C 3647.949219 589.339844 3647.878906 591.910156 3647.878906 594.480469 C 3647.878906 597.160156 3647.949219 599.828125 3647.988281 602.46875 C 3665.140625 605.601562 3682.261719 609.140625 3699.25 613.128906 C 3762.730469 627.960938 3824.859375 648.730469 3884.449219 675.570312 C 3915.699219 659.910156 3947.238281 646.019531 3978.730469 634 C 3968.320312 630.480469 3957.828125 627.210938 3947.300781 624.058594 C 3933.699219 630.898438 3918.359375 634.78125 3902.121094 634.78125 "/>
<path fill-rule="nonzero" fill="rgb(100%, 100%, 100%)" fill-opacity="1" d="M 3902.121094 591.011719 C 3870.550781 591.011719 3844.96875 565.421875 3844.96875 533.859375 C 3844.96875 502.289062 3870.550781 476.699219 3902.121094 476.699219 C 3933.679688 476.699219 3959.269531 502.289062 3959.269531 533.859375 C 3959.269531 565.421875 3933.679688 591.011719 3902.121094 591.011719 Z M 3902.121094 443.351562 C 3852.128906 443.351562 3811.621094 483.871094 3811.621094 533.859375 C 3811.621094 583.839844 3852.128906 624.359375 3902.121094 624.359375 C 3952.101562 624.359375 3992.621094 583.839844 3992.621094 533.859375 C 3992.621094 483.871094 3952.101562 443.351562 3902.121094 443.351562 "/>
<path fill-rule="nonzero" fill="rgb(100%, 100%, 100%)" fill-opacity="1" d="M 4350.550781 586.789062 C 4298.53125 584.628906 4246.378906 586.640625 4194.859375 593.351562 C 4190.550781 593.898438 4186.269531 594.578125 4181.96875 595.199219 C 4171.03125 618.539062 4147.371094 634.78125 4119.929688 634.78125 C 4102.480469 634.78125 4086.570312 628.160156 4074.460938 617.371094 C 4050.089844 623.96875 4026 631.53125 4002.269531 640.058594 C 3940.03125 662.378906 3880.230469 691.089844 3823.320312 724.550781 C 3785.539062 746.761719 3749.039062 771.089844 3713.710938 797.011719 C 3739.238281 833.039062 3771.421875 864.03125 3808.429688 888.21875 C 3842.539062 854.109375 3878.78125 822.191406 3917.109375 793.011719 C 3973.660156 749.910156 4034.648438 712.730469 4098.859375 682.558594 C 4163.050781 652.351562 4230.421875 629.199219 4299.300781 613.121094 C 4316.300781 609.140625 4333.390625 605.601562 4350.550781 602.46875 C 4350.609375 599.820312 4350.648438 597.160156 4350.648438 594.5 C 4350.648438 591.921875 4350.609375 589.359375 4350.550781 586.789062 "/>
<path fill-rule="nonzero" fill="rgb(100%, 100%, 100%)" fill-opacity="1" d="M 4119.929688 600.558594 C 4100.980469 600.558594 4085.621094 585.191406 4085.621094 566.238281 C 4085.621094 547.28125 4100.980469 531.921875 4119.929688 531.921875 C 4138.890625 531.921875 4154.25 547.28125 4154.25 566.238281 C 4154.25 585.191406 4138.890625 600.558594 4119.929688 600.558594 Z M 4119.929688 508.121094 C 4087.828125 508.121094 4061.808594 534.140625 4061.808594 566.238281 C 4061.808594 598.339844 4087.828125 624.359375 4119.929688 624.359375 C 4152.03125 624.359375 4178.058594 598.339844 4178.058594 566.238281 C 4178.058594 534.140625 4152.03125 508.121094 4119.929688 508.121094 "/>
<path fill-rule="nonzero" fill="rgb(100%, 100%, 100%)" fill-opacity="1" d="M 3869.460938 398.238281 L 3869.460938 320.191406 L 3960.238281 320.191406 L 3981.828125 398.238281 Z M 4189.398438 423.148438 L 4104.710938 423.148438 L 4104.710938 334.578125 C 4104.710938 329.390625 4108.921875 325.171875 4114.121094 325.171875 L 4119.929688 325.171875 L 4119.929688 310.78125 L 4108.308594 310.78125 C 4087.671875 310.78125 4070.949219 327.511719 4070.949219 348.148438 L 4070.949219 423.148438 L 4026.660156 423.148438 L 3982.929688 291.410156 L 3835.691406 291.410156 L 3835.691406 415.640625 C 3828.609375 419.640625 3821.898438 424.230469 3815.671875 429.390625 C 3809.558594 434.460938 3808.890625 443.609375 3814.058594 449.628906 C 3819.199219 455.609375 3828.109375 456.160156 3834.199219 451.148438 C 3852.679688 435.949219 3876.328125 426.820312 3902.121094 426.820312 C 3961.230469 426.820312 4009.160156 474.738281 4009.160156 533.859375 C 4009.160156 534.96875 4009.109375 536.070312 4009.070312 537.179688 L 4037.648438 537.179688 C 4037.671875 537.160156 4037.679688 537.148438 4037.699219 537.128906 C 4037.929688 527.191406 4037.070312 517.480469 4035.269531 508.121094 L 4157.300781 508.121094 C 4175.199219 488.75 4185.449219 459.859375 4189.398438 423.148438 "/>
</svg>
