<svg id="Слой_1" data-name="Слой 1" xmlns="http://www.w3.org/2000/svg" viewBox="0 0 359.98776 310.51828"><path d="M23.95488,202.081c.45132-10.09316,4.9088-18.25877,14.111-23.26685,9.4764-5.15728,19.07907-4.61995,28.03317,1.36908,12.56126,8.40175,24.92207,17.10318,37.36864,25.67636a86.98517,86.98517,0,0,1,8.28382,5.79428c3.9852,3.49786,8.31054,4.09453,13.46452,3.57534,15.16059-1.52719,30.37387-2.52631,45.55355-3.87772a6.76039,6.76039,0,0,0,4.42148-1.98637c14.33873-18.95652,33.67155-28.75257,56.92336-31.73065q30.34583-3.88672,55.43951,13.41417,31.31377,21.5869,62.63843,43.15794c5.348,3.68765,5.83887,6.19453,2.22535,11.445Q331.599,275.90186,310.7469,306.12908c-3.59853,5.217-6.18542,5.65432-11.491,1.997-9.97481-6.87586-20.0075-13.6709-29.87132-20.70268a9.05738,9.05738,0,0,0-8.88956-1.50806c-14.40853,4.48034-28.77247,9.272-43.44681,12.68507-16.63632,3.86939-33.57761,6.44051-50.41461,9.41576a11.20526,11.20526,0,0,1-5.80138-.70285q-31.96563-12.79433-63.82636-25.85a14.51764,14.51764,0,0,1-4.35181-2.79592Q62.73148,250.56019,32.89448,222.362A27.73407,27.73407,0,0,1,23.95488,202.081ZM107.721,223.53816c-.81305-.63256-1.37036-1.11257-1.97241-1.52776q-22.67453-15.63663-45.3658-31.24889c-7.53226-5.16085-16.01648-4.17167-21.12743,2.32175-5.15049,6.54366-4.20769,14.78089,2.47311,21.089Q70.491,241.33009,99.3119,268.4259a15.54308,15.54308,0,0,0,4.66713,2.96029c16.16774,6.61084,32.52081,12.79294,48.50856,19.80931,8.17293,3.58678,15.87193,5.06222,24.77077,2.89268,17.67735-4.30978,35.64066-7.441,53.337-11.68044,10.90171-2.61168,21.549-6.30565,32.26522-9.65852a8.53553,8.53553,0,0,1,8.08637,1.25906c9.51407,6.66486,19.10676,13.21761,28.68006,19.79768,1.08863.74826,2.24149,1.4031,3.52783,2.20274,12.47626-18.11852,24.76991-35.97182,37.13644-53.931-1.28959-.93434-2.17872-1.60657-3.09553-2.23867-18.40853-12.69237-37.21031-24.85538-55.14446-38.18569-30.73178-22.84263-79.43058-13.20467-99.05754,17.38907a9.56937,9.56937,0,0,1-6.333,3.70505c-16.90548,1.67539-33.86047,2.84507-50.77447,4.443A14.99638,14.99638,0,0,0,112.43,242.23307a15.28133,15.28133,0,0,0,13.26386,15.66625c12.03141,1.421,24.09494,2.57046,36.14572,3.82689,8.07508.84189,16.16233,1.57956,24.22356,2.537,4.90672.58278,7.35193,3.92732,6.00728,7.89636-1.232,3.63636-4.06765,4.32994-7.51094,3.968-18.75809-1.9718-37.51179-3.99264-56.28557-5.80429-6.76523-.65281-12.96081-2.37-18.24642-6.84778C100.02339,255.00033,95.67848,238.05062,107.721,223.53816Z" style="fill:#b79a56"/><path d="M102.29627,51.34451c3.41487-.9206,6.69067-1.6876,9.87016-2.74434a3.30415,3.30415,0,0,0,1.76458-2.24936c.79724-5.0776,1.87349-6.62382,6.93191-7.20294,10.77509-1.23359,21.57277-2.362,32.3909-3.09435,6.91228-.468,8.69977,1.59578,8.74528,8.41568.0066.99076.00094,1.98161.00094,3.50215h12.00287c0-1.97013-.04845-3.67353.00953-5.3733.14461-4.23851,2.35269-6.89128,6.47288-6.53392q18.24627,1.58261,36.42632,3.89083c3.99884.50407,5.306,3.73945,5.13283,7.82052,3.41726,1.04281,6.81187,2.19318,10.27913,3.04958a3.33635,3.33635,0,0,0,2.69026-1.037c2.16545-2.49443,4.60185-3.1866,7.68935-1.97a162.88954,162.88954,0,0,1,38.54993,21.32543c16.32614,12.30549,22.72474,34.06584,16.2943,53.40831-6.52265,19.61987-24.588,33.27347-45.20782,33.33657q-84.52753.25869-169.0563.003c-20.47389-.06123-38.93755-14.34505-45.05853-34.0532-6.43511-20.7196.8265-42.85238,18.20713-55.24637A163.972,163.972,0,0,1,91.95567,47.49363C97.15385,45.45519,99.22086,46.19309,102.29627,51.34451ZM185.99275,47.732c0,8.55887.08965,16.40532-.02243,24.24888a17.97432,17.97432,0,1,1-35.94839-.09075c-.0931-6.74669-.0205-13.49567-.022-20.24363-.00026-1.1751,0-2.3502,0-4.00182l-24.00533,2.42691c0,7.53432.07443,14.63471-.0177,21.73294a17.99643,17.99643,0,0,1-18.03542,18.155c-9.96308-.02776-17.78322-7.97818-17.931-18.26771-.04739-3.2995-.00742-6.60025-.00742-11.17393-9.139,5.3991-17.58087,9.95021-25.564,15.19894-13.94583,9.16908-19.67189,25.97744-14.889,42.164a36.60811,36.60811,0,0,0,35.45826,26.06344q83.03733.10059,166.07484.0017a36.48868,36.48868,0,0,0,35.37923-26.14838C291.096,102.11491,285.07688,85.838,271.132,76.5654c-3.8451-2.55679-7.75648-5.02926-11.75722-7.33239-4.17952-2.40606-8.50346-4.56132-13.39172-7.15975,0,3.98277.08169,7.18727-.01622,10.38628a17.971,17.971,0,0,1-35.93482-.29888c-.13694-7.07645-.025-14.15771-.025-21.72057ZM162.02362,60.131c0,4.271-.12184,8.12383.03676,11.965a5.77912,5.77912,0,0,0,5.6485,5.8198c3.30027.0445,5.74263-1.69579,6.068-4.88522.43362-4.25121.10713-8.58.10713-12.8996Zm60.04489.16341c0,4.50365-.46665,8.54872.2,12.39753a7.42332,7.42332,0,0,0,4.323,4.82449c1.63651.52563,5.3273-.63457,5.71944-1.83341,1.14775-3.50881,1.12434-7.406,1.4708-11.15928.02217-.24021-.67431-.66767-1.10228-.80942C229.28069,62.58858,225.866,61.511,222.06851,60.29439Zm-108.096.30188c-2.12612.59922-3.66966,1.02127-5.20558,1.46934-7.13482,2.0815-7.134,2.08407-6.76047,9.46242.01254.24789.002.49794.02917.744a6.02589,6.02589,0,0,0,5.83454,5.6688,5.87858,5.87858,0,0,0,6.06268-5.78973C114.109,68.44639,113.97251,64.72683,113.97251,60.59627Z" style="fill:#b79a56"/><path d="M18.00387,8.92614c-.00352-.49979-.00883-.99965-.0027-1.49936C18.059,2.71709,20.29071-.02747,24.03776.00021c3.73459.02758,5.91143,2.76417,5.95927,7.5094.01386,1.37423.05281,2.75166-.01751,4.1226-.19553,3.81207-2.63071,6.335-6.0246,6.30859-3.391-.0264-5.7545-2.55677-5.94128-6.39113C17.97113,10.67712,18.00738,9.80075,18.00387,8.92614Z" style="fill:#b79a56"/><path d="M12,26.936c.00046,6.12474-1.89412,8.98133-5.97222,9.00476C1.94326,35.96426.00065,33.08248,0,26.99887c-.00066-6.14452,1.87533-8.97465,5.965-8.9988C10.05663,17.97592,11.99951,20.85272,12,26.936Z" style="fill:#b79a56"/><path d="M47.99571,26.9873c.00388.49979.00925.99965.003,1.49935-.05862,4.70755-2.29,7.46841-6.02213,7.454-3.73122-.01436-5.92613-2.76136-5.97375-7.49349-.01382-1.37423-.05082-2.75137.01577-4.12267.18588-3.82792,2.58892-6.33637,5.99726-6.32448,3.40427.01189,5.77161,2.523,5.96933,6.36375C48.03013,25.2361,47.99183,26.11269,47.99571,26.9873Z" style="fill:#b79a56"/><path d="M29.94713,45.19183a21.48308,21.48308,0,0,1-.02787,3.36786c-.52113,3.24426-2.47148,5.144-5.77405,5.35615a5.82214,5.82214,0,0,1-6.06712-5.42811,46.01253,46.01253,0,0,1-.059-5.9928c.13-3.87644,2.43925-6.40529,5.82641-6.49487,3.52035-.09311,5.98213,2.52848,6.14541,6.56807.0353.87321.00516,1.74906.00516,2.62369Z" style="fill:#b79a56"/><path d="M341.99529,141.1165c.00078.74969.027,1.50045-.00366,2.24888-.16542,4.033-2.6348,6.66831-6.14438,6.57542-3.38228-.08952-5.6849-2.62633-5.83191-6.499-.06159-1.622-.05839-3.24987-.00231-4.87223.13971-4.04259,2.60669-6.66056,6.13195-6.56955,3.38335.08735,5.67265,2.61972,5.8439,6.4928C342.02747,139.36579,341.99451,140.24187,341.99529,141.1165Z" style="fill:#b79a56"/><path d="M359.99531,159.07673c.00163.74968.02673,1.50037-.00256,2.2489-.15869,4.0529-2.59365,6.684-6.10565,6.61517-3.38439-.06633-5.717-2.60273-5.87037-6.45886-.06449-1.62179-.05873-3.24971-.005-4.87221.13461-4.06326,2.56687-6.67707,6.09355-6.60967,3.38871.06475,5.70362,2.59261,5.88247,6.45309C360.0282,157.3259,359.99369,158.2021,359.99531,159.07673Z" style="fill:#b79a56"/><path d="M341.99531,177.11c.00092.74968.027,1.50041-.00346,2.24886-.16429,4.03621-2.62792,6.67069-6.138,6.58193-3.38322-.08553-5.69009-2.62152-5.83827-6.49228-.0621-1.62195-.0588-3.24983-.00277-4.87219.1398-4.047,2.60039-6.66325,6.12591-6.57607,3.3844.08368,5.67748,2.61489,5.85,6.48615C342.02756,175.35929,341.99437,176.23538,341.99531,177.11Z" style="fill:#b79a56"/><path d="M312.04239,157.91042a28.54181,28.54181,0,0,1,.021-3.36863,5.78475,5.78475,0,0,1,6.0926-5.36474c3.3718.14817,5.3029,2.08674,5.74686,5.315a35.81027,35.81027,0,0,1,.07993,5.98641c-.12745,3.98062-2.70379,6.70353-6.1461,6.59763-3.32455-.10226-5.66528-2.71946-5.82765-6.54325-.03706-.87264-.00547-1.74818-.00547-2.62239Z" style="fill:#b79a56"/><path d="M95.8156,119.94082a5.97313,5.97313,0,1,1,6.1516-5.79233A6.03347,6.03347,0,0,1,95.8156,119.94082Z" style="fill:#b79a56"/><path d="M144.01327,119.94068a5.97035,5.97035,0,1,1,5.95393-5.98986A6.02585,6.02585,0,0,1,144.01327,119.94068Z" style="fill:#b79a56"/><path d="M191.95569,108a5.97052,5.97052,0,1,1-5.92506,6.0082A6.02255,6.02255,0,0,1,191.95569,108Z" style="fill:#b79a56"/><path d="M245.96723,113.98288a5.9683,5.9683,0,1,1-5.95583-5.98282A6.03948,6.03948,0,0,1,245.96723,113.98288Z" style="fill:#b79a56"/><path d="M125.96724,125.90856a5.96857,5.96857,0,1,1-6.03011-5.90841A6.04089,6.04089,0,0,1,125.96724,125.90856Z" style="fill:#b79a56"/><path d="M173.96718,125.98813a5.96831,5.96831,0,1,1-5.95038-5.988A6.03962,6.03962,0,0,1,173.96718,125.98813Z" style="fill:#b79a56"/><path d="M221.96723,126.02751a5.96858,5.96858,0,1,1-5.9112-6.02741A6.04132,6.04132,0,0,1,221.96723,126.02751Z" style="fill:#b79a56"/></svg>