<?xml version="1.0" encoding="utf-8"?>
<!-- Generator: Adobe Illustrator 25.0.0, SVG Export Plug-In . SVG Version: 6.00 Build 0)  -->
<svg version="1.1" id="Слой_1" xmlns="http://www.w3.org/2000/svg" xmlns:xlink="http://www.w3.org/1999/xlink" x="0px" y="0px"
	 viewBox="0 0 341.7 383.9" style="enable-background:new 0 0 341.7 383.9;" xml:space="preserve">
<style type="text/css">
	.st0{fill:#B79A56;}
</style>
<path class="st0" d="M154.3,269.2c0,6.6,0,11.9,0,17.3c0,4.5-2.3,7.3-5.8,7.2c-3.4-0.1-5.4-2.7-5.4-7.1c0-11.2,0-22.5,0-33.7
	c0-3.2,0.4-6,4.1-7.1c3.6-1,5.5,1.1,7.3,3.7c4.5,6.7,9.2,13.3,14.5,19.8c0-4.9,0-9.8,0-14.7c-0.1-1.5,0-3,0.2-4.5
	c0.6-3.1,2.6-4.9,5.8-4.7c3.1,0.2,5.1,2,5.2,5.3c0.1,4.2,0.1,8.5,0.1,12.7c0,6.9,0,13.7,0,20.6c0,3.8,0,7.5-4.4,8.9
	c-4.2,1.3-6.3-1.7-8.4-4.7C163.3,282.2,159.1,276.2,154.3,269.2z"/>
<path class="st0" d="M72.2,269.5c0,5.9,0.1,11.7,0,17.6c-0.1,4-2.3,6.6-5.6,6.5c-3.3,0-5.5-2.6-5.6-6.6c-0.1-3.4-0.1-6.7,0-10.1
	c0.1-2-0.6-2.6-2.5-2.5c-3.1,0.1-6.2,0.1-9.4,0c-1.9-0.1-2.7,0.5-2.6,2.5c0.2,3.5,0.1,7,0,10.5c-0.1,3.8-2.3,6.2-5.5,6.3
	c-3.2,0-5.7-2.5-5.7-6.1c-0.1-12-0.1-24,0-35.9c0-3.7,2.5-6.2,5.6-6.2c3.2,0,5.4,2.4,5.5,6.2c0.1,3,0.2,6,0,9
	c-0.1,2.2,0.7,2.8,2.8,2.7c3-0.2,6-0.2,9,0c2,0.1,2.9-0.4,2.8-2.6c-0.2-2.9-0.1-5.7,0-8.6c0.1-4.1,2.3-6.6,5.6-6.6
	c3.3,0,5.6,2.5,5.6,6.5C72.3,257.8,72.2,263.7,72.2,269.5z"/>
<path class="st0" d="M191.4,269.4c0-5.6-0.1-11.2,0-16.8c0.1-4.9,1.9-6.8,6.8-6.9c4.4-0.1,8.7-0.1,13.1,0c4.4,0.1,6.9,2.2,6.8,5.7
	c-0.1,3.5-2.6,5.4-7,5.5c-1.7,0.1-3.5,0.1-5.2,0c-2.7-0.3-3.2,0.9-3.3,3.4c-0.2,3.2,0.9,4.2,4,3.8c1.7-0.2,3.5-0.2,5.2,0
	c3.1,0.3,5,2.2,5.2,5.4c0.2,3-2,5.6-5,5.8c0,0-0.1,0-0.1,0c-1.9,0.2-3.7,0.2-5.6,0c-2.7-0.3-3.7,0.4-3.6,3.4
	c0.1,2.8,0.5,4.2,3.7,3.8c2.2-0.2,4.5-0.2,6.7,0.1c3,0.1,5.3,2.6,5.2,5.6c0,0,0,0.1,0,0.1c-0.3,3.1-2.1,5.2-5.3,5.3
	c-5.4,0.2-10.7,0.2-16.1,0c-3.5-0.1-5.3-2.3-5.3-6.4C191.3,281.1,191.4,275.2,191.4,269.4z"/>
<path class="st0" d="M246.8,258.8c2.3-3.6,4.3-6.7,6.4-9.8c2.3-3.4,5.4-4.3,8.2-2.6c3,1.8,3.4,5.1,1.1,8.8c-0.2,0.4-0.5,0.9-0.8,1.3
	c-7.3,8.8-11,18.5-9.4,30.2c0.6,4.2-2.1,7-5.5,7c-3.4,0.1-6.1-2.6-5.5-6.9c1.7-11.7-2.1-21.4-9.4-30.2c-0.5-0.7-1-1.4-1.4-2.2
	c-1.9-3.3-1.3-6.4,1.5-8.1c2.7-1.7,5.7-1,7.8,2C242.2,251.6,244.4,255,246.8,258.8z"/>
<path class="st0" d="M137.1,0c6.3,2.4,11.8,5.8,14.3,12.6c0.5,1.3,1.3,0.7,2.1,0.3c10-4.4,21.6,0.2,25.9,10.2c0.9,2,1.4,4.1,1.6,6.2
	c0.3,2.9,2,2.2,3.6,2.2c45.4,0,90.7,0,136.1,0c11,0,18.9,6.3,20.7,16.7c1.8,10.1-5.7,20.7-15.9,22.2c-2.1,0.3-4.2,0.4-6.3,0.4
	c-16.2,0-32.5,0-48.7,0c-1.6,0.1-3.2-0.1-4.8-0.5c-2.4-0.6-4-3-3.7-5.5c0-2.5,1.7-4.6,4.2-5.1c1.4-0.2,2.7-0.3,4.1-0.2
	c16,0,32,0,48,0c1.1,0,2.3,0,3.4,0c5.4-0.4,9-3.9,8.9-8.7c-0.2-4.8-3.9-8.1-9.4-8.1c-45.6,0-91.2-0.1-136.8-0.1
	c-2.5,0-3.2,0.8-3,3.1c0.2,3.5,0.2,7,0,10.5c-0.2,2.6,0.6,3.4,3.3,3.3c17.9-0.1,35.7-0.1,53.6-0.1c1.1,0,2.3-0.1,3.4,0
	c3.2,0.3,5.1,2,5.3,5.2c0.2,3.2-1.7,5.4-5,5.8c-1.2,0.1-2.5,0.2-3.7,0.2c-17.7,0-35.5,0.1-53.2-0.1c-2.7,0-3.6,0.7-3.9,3.4
	c-0.6,6-4.1,11.2-9.4,14.1c-2,1.2-2.3,2.4-2.4,4.4c-0.2,7.7,0.8,15.5-1.1,23.1c-0.6,2.5-1.6,4.9-2.4,7.5c1.3,0.7,2.7,0.3,4,0.3
	c31,0,62-0.1,93,0.1c9.2,0,16,4.6,19.7,13c3.5,8.2,2,15.9-3.8,22.6c-0.5,0.6-1.1,1-1.6,1.6c-1.3,1.4-4.2,1.9-4.1,3.7
	c0.1,1.7,2.1,3.3,3.2,4.9c20.4,30.3,27.1,63.6,22,99.5c-5.5,38.1-21.8,71.8-43.7,103c-4.6,6.6-11.3,9.8-18.8,11.7H63.7
	c-11.1-2.5-17.7-10.1-23.6-19.2c-15.3-23.5-27.5-48.2-34.5-75.4c-0.3-1.1-0.6-2.2-0.8-3.3c-0.7-3.1,1.1-6.1,4.2-6.9c0,0,0,0,0,0
	c2.9-0.7,5.8,1,6.7,4.5c2.1,8.1,4.5,16.1,7.4,23.9c3.7,10,3.6,10,14.1,10c77,0,153.9,0,230.9,0.1c3.2,0,4.8-0.8,6-3.9
	c9.8-24.5,15.6-49.7,13.7-76.3c-0.3-4.5-1.1-8.9-1.6-13.4c-0.2-1.8-1-2.7-2.9-2.4c-0.6,0.1-1.2,0.1-1.9,0c-87.7,0-175.4,0-263.1-0.1
	c-3.3,0-4.8,0.6-5.2,4.2c-1.3,10.2-2.3,20.4-1.3,30.6c0.2,2.6,0,5-2.2,6.7c-1.6,1.3-3.8,1.5-5.7,0.6c-2.1-0.9-3-2.8-3.2-5.1
	c-2.8-32.6,6.2-65.2,25.3-91.8c1.5-2.1,1.2-2.8-0.9-4.2c-7.9-5.2-11.3-15-8.4-24c2.8-8.9,11.1-14.9,20.4-14.8c21.1-0.1,42.2,0,64,0
	c-5.3-10.4-3.7-21.3-3.9-32c0-1.4-0.8-2.6-2-3.2c-6.9-4-10.1-10.1-10.1-18c-0.1-12.9-0.1-25.7,0-38.6C85,16.8,97.9,7.8,112.2,12.7
	c0.8,0.3,1.8,1.5,2.4-0.2c2.6-6.7,7.9-10.2,14.3-12.6L137.1,0z M279,210.4c3.6,0,3.8-0.9,2.7-3.9c-4.6-13.3-11.3-25.8-19.8-37.1
	c-1.3-2.1-3.7-3.2-6.1-3.1c-52,0.1-103.9,0.1-155.9,0.1c-19,0-38,0-57,0c-1.8-0.1-3.6,0.7-4.6,2.3c-8.8,11.4-15.6,24.1-20.3,37.7
	c-1.1,3.2-0.9,4.1,2.9,4.1c43-0.1,86-0.1,128.9-0.1C192.8,210.3,235.9,210.4,279,210.4L279,210.4z M264.9,328.7
	c-76.4,0-152.9,0-229.3-0.1c-3.1,0-2.9,0.9-1.7,3.1c6,11.6,12.8,22.8,20.4,33.5c3.6,5,8.6,7.4,14.8,7.4c53.8,0,107.6,0,161.5,0
	c6.1,0.2,11.9-2.8,15.2-8c7.3-10.3,13.8-21.1,19.6-32.2c0.5-1.1,1.4-2,1.3-3.7H264.9z M234.1,155.2c9.4,0,18.7,0,28.1,0
	c4.8,0,8.4-2.6,9.9-6.6c2.6-7-2.5-13.6-10.6-13.6c-34.2,0-68.5-0.1-102.7-0.1c-1.9,0-3.6,0.6-5.1,1.8c-12.4,8.8-29,8.8-41.4-0.1
	c-1.6-1.2-3.5-1.8-5.5-1.7c-10.5,0.1-21,0-31.5,0c-12.6,0-25.2-0.1-37.9,0c-6.7,0-11.2,5-10.5,11.3c0.6,5.4,5,8.9,11.5,8.9
	c37.1,0,74.2,0,111.3,0C177.8,155.2,205.9,155.2,234.1,155.2L234.1,155.2z M108.1,100.3c0.2,3.4,0.1,6.8,0.5,10.1
	c1.4,12.5,12.1,21.8,24.6,21.6c12.4-0.1,22.8-9.3,24.3-21.6c0.7-5.8,0.2-11.7,0.4-17.6c0.1-3.3-3-2.2-4.5-3.3
	c-1.8-1.3-2,0.7-2.5,1.6c-1.9,4-5.1,7.2-9,9.2c-9.8,4.9-21.3,1-26.5-8.8c-0.5-0.9-0.3-2.9-2.3-2.2c-2.7,1-5.9,1.4-4.9,5.8
	c0.4,1.7,0.1,3.5,0.1,5.2L108.1,100.3z M141.6,21.6c0-6.5-3.3-10.4-8.7-10.4c-5.2,0.1-8.5,4-8.5,10.2c0,19.8,0,39.7,0,59.5
	c0,6.2,3.4,10.2,8.5,10.2c5.2,0.1,8.6-4,8.7-10.4c0-9.9,0-19.7,0-29.6C141.6,41.3,141.6,31.5,141.6,21.6L141.6,21.6z M113.2,31.9
	c0-5.6-3.5-9.4-8.4-9.4c-4.9,0-8.6,3.7-8.6,9.3c-0.1,13-0.1,25.9,0,38.9c0,5.5,3.8,9.3,8.7,9.2c4.9-0.1,8.3-3.9,8.4-9.5
	c0-6.4,0-12.7,0-19.1C113.2,44.9,113.2,38.4,113.2,31.9L113.2,31.9z M152.9,70.7c0,5.3,3.5,9.1,8.3,9.2c4.9,0.2,8.8-3.7,8.8-9.1
	c0.1-13.1,0.1-26.2,0-39.3c-0.1-5.5-3.9-9.2-8.9-9c-4.8,0.2-8.2,3.9-8.2,9.3c-0.1,6.5,0,13,0,19.5S152.8,64.2,152.9,70.7L152.9,70.7
	z"/>
<path class="st0" d="M131.8,269.6c-0.1,13.3-10.9,24.1-24.3,24c-13.3-0.1-24.1-10.9-24-24.3c0.1-13.3,10.9-24.1,24.3-24
	c0,0,0,0,0.1,0C121.1,245.6,131.7,256.4,131.8,269.6z M107.7,256.6c-7.1,0-12.9,5.7-13,12.9s5.7,12.9,12.9,13
	c7.1,0,12.9-5.7,13-12.9c0,0,0,0,0,0C120.5,262.5,114.8,256.7,107.7,256.6z"/>
</svg>
