<svg id="Слой_1" data-name="Слой 1" xmlns="http://www.w3.org/2000/svg" viewBox="0 0 558.77177 522.47945"><path d="M454.56569,421.23506c1.189-7.98706,1.88148-16.442,3.79781-24.60963a60.26775,60.26775,0,0,1,17.58245-30.81c14.356-13.44155,32.82683-13.611,47.03884.04585,14.25822,13.70124,20.07137,31.108,20.30046,50.51862.04707,3.989.49006,6.285,4.80935,8.1918,12.25509,5.41,14.25322,21.796,4.47227,30.96078a11.80085,11.80085,0,0,0-3.41757,6.54828c-1.48658,11.39518-2.62571,22.838-3.7514,34.27731-1.51821,15.429-12.81285,25.96967-28.25458,26.072-12.16725.08065-24.3356.04591-36.50333.011-12.329-.03541-19.937-5.885-23.30684-17.77441a39.59985,39.59985,0,0,0-1.7379-3.97266A35.0009,35.0009,0,0,0,453.5329,504.96c-3.50223,11.87046-10.95526,17.48362-23.48032,17.4846q-180.264.01419-360.52787.00592-30.25289.00009-60.50576-.00732c-8.00882-.00928-10.49715-3.36984-8.20409-11.0348q6.79905-22.727,13.6566-45.4363c1.98491-6.55951,3.36794-7.34835,10.39069-6.93406,4.33513.2558,7.39491-1.89942,8.83762-5.93563,1.42359-3.98279-.08976-7.21911-3.39116-9.586-7.22394-5.17921-7.40781-5.60626-4.90734-13.80682,3.689-12.09831,7.64156-24.126,10.931-36.33227,1.61263-5.984,4.53014-9.37543,10.8674-9.54534a28.66972,28.66972,0,0,0,4.93556-1.09641q0-2.943,0-5.86894c.00023-53.17861.14793-106.35777-.04609-159.53564A415.83885,415.83885,0,0,1,70.58243,93.303c3.80251-12.415,7.18575-24.95852,10.99066-37.37277.772-2.51865.39028-3.879-1.64265-5.45626-5.51133-4.276-7.95291-10.06713-7.79134-17.03707.10429-4.49866-.0842-9.00484.05059-13.5019C72.52014,8.9067,80.98578.16695,91.957.11174Q137.96-.11977,183.96491.11021a19.37281,19.37281,0,0,1,19.2999,16.93238,99.39742,99.39742,0,0,1,.26895,19.41348c-.52292,7.07213-2.826,10.11387-10.15563,16.34641,11.55908,39.84953,25.19741,79.429,28.09769,121.93384,4.39529-3.99832,9.8796-15.75163,9.88628-20.50539.01459-10.33565-.03662-20.67152.01615-31.00692.08137-15.92888,10.77687-26.80913,26.65792-26.85225q49.25439-.13371,98.50924.00134c15.38749.04639,26.114,10.65777,26.43185,26.05567.20639,9.998-.07663,20.00625.133,30.00417a18.23837,18.23837,0,0,0,1.83358,7.5745c11.8197,23.51066,23.8685,46.90632,35.63476,70.44337a21.09634,21.09634,0,0,1,1.89719,9.08941q.1867,57.01218.023,114.02521c-.00809,3.31617.85052,5.23186,3.89975,7.11791,15.03841,9.30184,22.27527,23.892,25.77676,40.54287C453.59627,407.983,453.85253,414.98465,454.56569,421.23506ZM329.8801,508.97164V242.76769H206.435V508.97164Zm-259.18-357.26406a313.42185,313.42185,0,0,0-5.29357,58.59073q-.15842,82.23315-.02514,164.46677c.00041,1.74649.14957,3.49292.24866,5.66151,42.57981-7.84588,84.55545-15.58048,126.90607-23.38418V350.6673c0-34.9928.17147-69.98713-.1328-104.97728-.06751-7.76213,1.27858-14.64548,5.20653-21.35649,4.11391-7.02869,7.55956-14.45412,11.15869-21.7743a10.28136,10.28136,0,0,0,1.33-5.17121c-1.69929-16.5541-3.61983-33.08533-5.40217-49.63116-.28336-2.63066-1.47334-3.86222-4.12524-3.77122-8.11257.27832-16.53415-.77674-24.27266,1.05956-14.02911,3.329-27.69764,8.2317-41.43173,12.7366-15.643,5.13107-31.36683,8.13-47.37252,2.02172C81.8129,157.63538,76.48864,154.53134,70.70011,151.70758Zm338.32248,203.343c.08568-.875.26292-1.843.26331-2.811q.02331-55.97745-.06391-111.95463a15.45651,15.45651,0,0,0-1.84918-6.56842q-14.12621-28.10917-28.473-56.10732c-.70385-1.38147-1.57128-2.6796-2.61686-4.44584-.81444,1.31434-1.29411,1.97537-1.65955,2.69449-9.80283,19.28928-19.65526,38.55392-29.30921,57.91758a18.73254,18.73254,0,0,0-1.89738,8.05362q-.146,130.947-.07065,261.89433c.00024,1.75644.16023,3.51288.241,5.17261H368.609c-1.04442-4.18969-2.39753-7.98517-2.88557-11.88878q-2.0131-16.10109-3.3625-32.28186c-.2783-3.31679-1.26958-5.20723-4.39545-6.88052-7.27278-3.89323-10.56392-10.365-9.78049-18.67791.7131-7.56637,6.03274-13.68173,13.76978-16.02524,1.3736-.41606,2.74445-.8411,4.09084-1.25417,0-1.89484.00889-3.38644-.00128-4.87786C365.83075,385.72366,380.80571,364.04912,409.02259,355.05062ZM192.11478,508.92579a20.056,20.056,0,0,0,.386-2.66091c.02439-25.50586-.03251-51.01209.10325-76.51728.01847-3.47295-1.74214-4.00593-4.48519-4.52053Q130.94418,414.50153,73.798,403.62415c-8.285-1.56856-16.57208-3.12609-25.10546-4.73534-3.12719,10.23619-5.98907,19.9536-9.10522,29.58875-.92166,2.84968-.63388,4.64873,1.6084,6.94675,10.72169,10.9881,7.44034,29.73085-6.90736,34.64118-7.477,2.5589-9.72572,6.87649-11.24462,13.37349-1.285,5.49631-3.27013,10.827-4.88894,16.24783-.8905,2.982-1.66446,5.99876-2.55682,9.239Zm9.95419-378.401c-7.21454-24.98118-14.04768-48.80033-21.08648-72.55851a5.02965,5.02965,0,0,0-3.79016-2.74092q-39.25106-.2438-78.50366-.00784a4.966,4.966,0,0,0-3.77323,2.67829Q84.22343,95.34,74.03984,132.92717c-.40235,1.49062.73748,4.17227,2.03288,5.22743,13.75126,11.20115,29.21934,14.81846,46.32848,9.38679,11.0997-3.52384,22.07664-7.435,33.10345-11.18776A113.98282,113.98282,0,0,1,202.069,130.52477Zm163.01419,34.72147c-1.77871-.20031-2.892-.43478-4.00547-.43533q-57.23019-.0288-114.46019-.08062c-3-.00766-4.38522,1.2239-5.64168,3.72433-9.34317,18.594-18.81876,37.12148-28.23177,55.68049-.71936,1.41831-1.27717,2.91858-2.02755,4.65206a24.25453,24.25453,0,0,0,2.51541.31982c38.65325.01532,77.30674.06309,115.959-.12632,1.742-.00851,4.21717-1.77686,5.08975-3.40253,5.98156-11.14445,11.64179-22.46182,17.37448-33.7393C356.08383,183.12676,360.46735,174.39163,365.08316,165.24624ZM375.23082,460.6077c1.12155,11.17229,2.16826,21.76,3.2623,32.3428a37.60632,37.60632,0,0,0,.89819,5.42255c1.65195,6.4727,7.29128,10.78205,14.42884,10.83321,12.33305.0884,24.6674.0682,37.00078.005,5.68862-.02912,8.43794-2.309,9.94275-7.88133,2.32293-8.60167,7.30861-12.97592,14.772-12.9606,7.484.01539,12.67208,4.58525,14.7661,13.00651,1.36786,5.50089,4.17133,7.80666,9.94345,7.83511,12.33335.06075,24.6678.09286,37.0006-.01019A14.5891,14.5891,0,0,0,532.167,495.87692c.83312-6.77637,1.44593-13.58069,2.10062-20.378.47009-4.88073.84856-9.77019,1.28813-14.89122ZM369.07138,151.085a11.98194,11.98194,0,0,0,.43005-1.95831q.05742-11.98433.067-23.9689c-.0015-11.37391-3.9487-15.394-15.217-15.40108q-47.18535-.02962-94.37073.00624a31.74717,31.74717,0,0,0-5.46849.33c-4.91684.8667-8.83554,3.87044-9.10523,8.661-.60213,10.69653-.18817,21.45027-.18817,32.331ZM137.73885,41.754c14.49365,0,28.98767.0611,43.48081-.02651,6.94934-.042,9.19286-2.43454,9.2724-9.41953.04172-3.665.10479-7.3344-.02129-10.99563-.1833-5.32234-2.77425-8.00833-8.09532-8.01971q-44.48032-.09516-88.96093.00588c-5.25766.01232-7.84321,2.75529-8.04588,8.111-.126,3.32762-.03774,6.66376-.02816,9.996.02338,8.12389,2.21964,10.33748,10.41676,10.35337Q116.748,41.79951,137.73885,41.754ZM530.17574,422.066c.40539-17.68513-3.30274-33.35673-15.63792-45.89934-9.57786-9.73883-20.536-9.53508-30.30355.12174-7.58059,7.49466-11.95213,16.79039-13.87707,27.12451-1.12954,6.06405-1.34069,12.29923-1.98476,18.65309Zm-89.70883.0884c.74366-18.22863-3.24472-34.36037-16.64937-46.99667-8.93019-8.41827-19.10438-8.19372-28.07379.14537-8.88164,8.25752-13.52513,18.82629-15.42846,30.5876-.85454,5.28073-.8477,10.70094-1.24647,16.2637ZM84.49912,390.6289l-.07348,1.31993,105.50148,19.96v-40.7219C154.455,377.72835,119.47705,384.17861,84.49912,390.6289Zm369.3097,44.86874q-41.208,0-82.416-.00684c-6.98379-.00421-10.24567,1.90949-10.10353,6.05431.13436,3.91729,3.09321,5.59833,10.0062,5.5993q82.41687.01155,164.8337-.00195c1.49434-.00024,3.41158.43389,4.39285-.30971,1.9076-1.44569,4.53679-3.58108,4.542-5.43733.00531-1.88532-2.6038-4.00123-4.44962-5.56554-.80736-.68426-2.56418-.31069-3.88979-.31124Q495.26676,435.50024,453.80882,435.49764Z" style="fill:#b79a56"/><path d="M303.67975,388.15966q-.001-20.48458.016-40.96915c.00357-1.65333-.36465-3.78642.49091-4.85576,1.60967-2.012,3.87871-4.51446,6.07712-4.7292,1.90913-.18649,4.41431,2.2218,6.0419,4.03483.91217,1.01614.77208,3.15219.77443,4.78412q.06024,41.96833.02588,83.93679a13.69347,13.69347,0,0,1-.074,2.4932c-.68054,3.63413-2.57117,6.29077-6.53226,6.33662-4.21384.0489-6.42046-2.58717-6.70724-6.57008-.27445-3.81166-.10686-7.65617-.10942-11.48621Q303.67191,404.64722,303.67975,388.15966Z" style="fill:#b79a56"/><path d="M303.75291,293.096c0-2.99264-.18615-5.99983.04661-8.97424.29807-3.80885,2.5242-6.32718,6.37327-6.392,4.07833-.06874,6.61754,2.49962,6.81917,6.49334a160.89282,160.89282,0,0,1-.02573,17.44986c-.23126,3.96585-2.79843,6.55042-6.89718,6.39651-3.83009-.14381-6.01086-2.68845-6.29062-6.497-.20651-2.81128-.04059-5.64994-.04059-8.47639Z" style="fill:#b79a56"/><path d="M78.59954,266.16372c0-7.82361-.11452-15.64944.04053-23.47.10211-5.15051,2.96925-8.33609,6.845-8.1538,3.9094.18383,6.45326,3.44414,6.45661,8.59459q.01482,22.72356-.11579,45.447c-.03851,5.71158-2.47006,8.73315-6.68761,8.75308-4.27577.02021-6.64649-2.988-6.68706-8.69648-.05326-7.49119-.01308-14.983-.01308-22.47453Z" style="fill:#b79a56"/><path d="M78.34922,319.41543c.11012-1.9884-.46451-4.43487.48827-5.85962,1.48931-2.227,3.76938-4.7777,6.15571-5.34963,3.46289-.8299,6.06248,1.84231,6.51772,5.35507a52.6496,52.6496,0,0,1,.14587,10.93583c-.307,3.79784-2.7325,6.185-6.57613,6.17828-3.88262-.00681-6.01953-2.52467-6.52988-6.27147a37.233,37.233,0,0,1-.03732-4.9833Z" style="fill:#b79a56"/><path d="M59.1959,470.14156a27.97193,27.97193,0,0,1,55.94364-.04884,27.97187,27.97187,0,1,1-55.94364.04884Zm42.55755-.19884a14.66837,14.66837,0,1,0-29.32893.56039,14.66829,14.66829,0,0,0,29.32893-.56039Z" style="fill:#b79a56"/><path d="M149.72053,427.31386a20.47724,20.47724,0,1,1-.5961,40.9488,20.47791,20.47791,0,0,1,.5961-40.9488Zm6.86231,20.27464a7.34887,7.34887,0,0,0-7.11307-6.999,7.425,7.425,0,0,0-7.0218,7.61716,7.07512,7.07512,0,0,0,14.13487-.6182Z" style="fill:#b79a56"/></svg>